<svg width="593" height="436" viewBox="0 0 593 436" fill="none" xmlns="http://www.w3.org/2000/svg">
<path d="M479 78.5C481.833 73.3333 489.4 63.2 497 64C497 69.5 489 78.5 479 78.5Z" fill="#D2ECB0"/>
<path d="M472 81.5C466 82.1667 453.7 80.2 452.5 67C457 65.5 467.5 69.5 472 81.5Z" fill="#D2ECB0"/>
<path d="M470.5 61.5C465.5 61.3333 455.3 58.6 454.5 49C460.5 49 469 55 470.5 61.5Z" fill="#D2ECB0"/>
<path d="M479.5 61.5C481 57.3333 486.1 48.9 494.5 48.5C494.5 54 484.51 61.5 479.5 61.5Z" fill="#D2ECB0"/>
<path d="M481.5 45C482.5 41.5 486.3 34.5 493.5 34.5C494.5 38 487.5 43 481.5 45Z" fill="#D2ECB0"/>
<path d="M470.5 45C466.833 45 458.9 42.7 456.5 33.5C460.5 33.5 468 36.5 470.5 45Z" fill="#D2ECB0"/>
<path d="M474.5 32.5C470.833 32.5 463.2 29.7 462 18.5C467 18.5 474 23.5 474.5 32.5Z" fill="#D2ECB0"/>
<path d="M486.5 28C487.333 25.5 490.2 20.5 495 20.5C495 23.5 492 26.5 486.5 28Z" fill="#D2ECB0"/>
<path d="M477.5 20.5C474 19 467.8 14.1 471 6.5C475 6.5 479.5 16 477.5 20.5Z" fill="#D2ECB0"/>
<path d="M484 16C483.333 13 483.8 5.9 491 1.5C493.5 6.5 490.032 13.5 484 16Z" fill="#D2ECB0"/>
<path d="M493 113C490.667 111.5 485.4 107.2 483 102M478.5 94C474.5 83.1667 469.9 53.4 483.5 21M479 78.5C481.833 73.3333 489.4 63.2 497 64C497 69.5 489 78.5 479 78.5ZM472 81.5C466 82.1667 453.7 80.2 452.5 67C457 65.5 467.5 69.5 472 81.5ZM470.5 61.5C465.5 61.3333 455.3 58.6 454.5 49C460.5 49 469 55 470.5 61.5ZM479.5 61.5C481 57.3333 486.1 48.9 494.5 48.5C494.5 54 484.51 61.5 479.5 61.5ZM481.5 45C482.5 41.5 486.3 34.5 493.5 34.5C494.5 38 487.5 43 481.5 45ZM470.5 45C466.833 45 458.9 42.7 456.5 33.5C460.5 33.5 468 36.5 470.5 45ZM474.5 32.5C470.833 32.5 463.2 29.7 462 18.5C467 18.5 474 23.5 474.5 32.5ZM486.5 28C487.333 25.5 490.2 20.5 495 20.5C495 23.5 492 26.5 486.5 28ZM477.5 20.5C474 19 467.8 14.1 471 6.5C475 6.5 479.5 16 477.5 20.5ZM484 16C483.333 13 483.8 5.9 491 1.5C493.5 6.5 490.032 13.5 484 16Z" stroke="#D4C782" stroke-width="0.5"/>
<path d="M370.001 195.5C345.667 202.833 299.801 235.2 311.001 306C313.319 320.659 318.533 335.222 326.079 349C364.094 418.406 461.312 467.905 546 409.5C537 403.5 523 390 519 382C526 377.5 589.5 356.5 592.5 283.5C565.5 286 550.5 290 529 282.5C535 277.5 552.5 264 552 234C518.5 241 508 254.5 449 246C448.666 245.952 448.332 245.902 448 245.852C401.445 238.78 376.62 209.401 370.001 195.5Z" fill="#F3F4F2"/>
<path d="M311.001 306C299.801 235.2 345.667 202.833 370.001 195.5C376.62 209.401 401.445 238.78 448 245.852C479.5 199.204 473.5 115.5 473.5 113.5C473.5 111.9 485.167 98.8333 491 92.5C483.667 93.5 466 95.5 454 95.5C425 87.5 420 92 403 95.5C389.4 98.3 361.334 137 349 156C329.167 183.667 262.9 237.5 156.5 231.5C76.5008 228.5 52.5 175.5 43.5 170.5C36.5 178 38.5 186 42.5 205.5C19 199 6 208 7.5 208.5C9 209 17 216 39 236C12 235 9 239 0 247C33.5 242 46 260.5 70 272.5C94 284.5 102.5 311.5 171 344.5C225.8 370.9 297.22 358.5 326.079 349C318.533 335.222 313.319 320.659 311.001 306Z" fill="white"/>
<path d="M156.5 231.5C262.9 237.5 329.167 183.667 349 156C264.001 116.5 265.5 26 263.5 13.5C242 19 231 45.5 229 57C215 47.5 205.5 19 202 0C145.5 13.5 144.5 105 144.5 107.5C144.5 110 138.5 107.5 107 93.5C96.0004 166.5 141 214.5 156.5 231.5Z" fill="#F3F4F2"/>
</svg>
