<svg width="176" height="270" viewBox="0 0 176 270" fill="none" xmlns="http://www.w3.org/2000/svg">
<rect width="176" height="215" fill="black"/>
<circle cx="88" cy="116" r="82" fill="url(#paint0_radial_182_3311)"/>
<circle cx="88" cy="116" r="67" fill="url(#paint1_radial_182_3311)"/>
<circle cx="90.0001" cy="41" r="5" fill="white"/>
<circle cx="123" cy="51" r="5" fill="white"/>
<circle cx="163" cy="122" r="5" fill="white"/>
<circle cx="112" cy="186" r="5" fill="white"/>
<circle cx="32" cy="165" r="5" fill="white"/>
<circle cx="21" cy="84" r="5" fill="white"/>
<circle cx="99.0001" cy="41" r="3" fill="white"/>
<circle cx="107" cy="43" r="3" fill="white"/>
<circle cx="115" cy="46" r="3" fill="white"/>
<circle cx="131" cy="55" r="3" fill="white"/>
<circle cx="137" cy="60" r="3" fill="white"/>
<circle cx="143" cy="65" r="3" fill="white"/>
<circle cx="148" cy="71" r="3" fill="white"/>
<circle cx="152" cy="77" r="3" fill="white"/>
<circle cx="155" cy="84" r="3" fill="white"/>
<circle cx="158" cy="91" r="3" fill="white"/>
<circle cx="160" cy="98" r="3" fill="white"/>
<circle cx="163" cy="112" r="3" fill="white"/>
<circle cx="162" cy="105" r="3" fill="white"/>
<g clip-path="url(#clip0_182_3311)">
<circle cx="161.452" cy="130.93" r="3" fill="white"/>
</g>
<g clip-path="url(#clip1_182_3311)">
<circle cx="159.176" cy="138.401" r="3" fill="white"/>
</g>
<g clip-path="url(#clip2_182_3311)">
<circle cx="156.9" cy="145.872" r="3" fill="white"/>
</g>
<g clip-path="url(#clip3_182_3311)">
<circle cx="153.314" cy="152.811" r="3" fill="white"/>
</g>
<g clip-path="url(#clip4_182_3311)">
<circle cx="149.339" cy="158.828" r="3" fill="white"/>
</g>
<g clip-path="url(#clip5_182_3311)">
<circle cx="144.055" cy="164.312" r="3" fill="white"/>
</g>
<g clip-path="url(#clip6_182_3311)">
<circle cx="138.771" cy="169.796" r="3" fill="white"/>
</g>
<g clip-path="url(#clip7_182_3311)">
<circle cx="133.098" cy="174.359" r="3" fill="white"/>
</g>
<g clip-path="url(#clip8_182_3311)">
<circle cx="121.363" cy="182.563" r="3" fill="white"/>
</g>
<g clip-path="url(#clip9_182_3311)">
<circle cx="127.425" cy="178.921" r="3" fill="white"/>
</g>
<circle cx="102.536" cy="188.68" r="3" fill="white"/>
<circle cx="94.7748" cy="189.552" r="3" fill="white"/>
<circle cx="87.0134" cy="190.425" r="3" fill="white"/>
<circle cx="79.2219" cy="189.883" r="3" fill="white"/>
<circle cx="72.1224" cy="188.62" r="3" fill="white"/>
<circle cx="64.9927" cy="185.943" r="3" fill="white"/>
<circle cx="57.863" cy="183.265" r="3" fill="white"/>
<circle cx="51.4253" cy="179.866" r="3" fill="white"/>
<circle cx="39.2417" cy="172.346" r="3" fill="white"/>
<circle cx="44.9875" cy="176.467" r="3" fill="white"/>
<circle cx="25.7517" cy="157.556" r="3" transform="rotate(-159.007 25.7517 157.556)" fill="white"/>
<circle cx="21.9413" cy="150.739" r="3" transform="rotate(-159.007 21.9413 150.739)" fill="white"/>
<circle cx="18.1308" cy="143.921" r="3" transform="rotate(-159.007 18.1308 143.921)" fill="white"/>
<circle cx="15.612" cy="136.528" r="3" transform="rotate(-159.007 15.612 136.528)" fill="white"/>
<circle cx="14.027" cy="129.493" r="3" transform="rotate(-159.007 14.027 129.493)" fill="white"/>
<circle cx="13.7338" cy="121.883" r="3" transform="rotate(-159.007 13.7338 121.883)" fill="white"/>
<circle cx="13.4409" cy="114.273" r="3" transform="rotate(-159.007 13.4409 114.273)" fill="white"/>
<circle cx="14.0812" cy="107.021" r="3" transform="rotate(-159.007 14.0812 107.021)" fill="white"/>
<circle cx="16.2958" cy="92.8756" r="3" transform="rotate(-159.007 16.2958 92.8756)" fill="white"/>
<circle cx="14.7219" cy="99.7692" r="3" transform="rotate(-159.007 14.7219 99.7692)" fill="white"/>
<circle cx="24.3519" cy="75.2952" r="3" transform="rotate(-92.2173 24.3519 75.2952)" fill="white"/>
<circle cx="29.1161" cy="69.1062" r="3" transform="rotate(-92.2173 29.1161 69.1062)" fill="white"/>
<circle cx="33.8802" cy="62.9173" r="3" transform="rotate(-92.2173 33.8802 62.9173)" fill="white"/>
<circle cx="39.6822" cy="57.6889" r="3" transform="rotate(-92.2173 39.6822 57.6889)" fill="white"/>
<circle cx="45.523" cy="53.4598" r="3" transform="rotate(-92.2173 45.523 53.4598)" fill="white"/>
<circle cx="52.4017" cy="50.1912" r="3" transform="rotate(-92.2173 52.4017 50.1912)" fill="white"/>
<circle cx="59.2804" cy="46.9226" r="3" transform="rotate(-92.2173 59.2804 46.9226)" fill="white"/>
<circle cx="66.1977" cy="44.6532" r="3" transform="rotate(-92.2173 66.1977 44.6532)" fill="white"/>
<circle cx="80.0711" cy="41.1138" r="3" transform="rotate(-92.2173 80.0711 41.1138)" fill="white"/>
<circle cx="73.1151" cy="42.3839" r="3" transform="rotate(-92.2173 73.1151 42.3839)" fill="white"/>
<rect x="6" y="208" width="164" height="50" rx="25" fill="#787880" fill-opacity="0.36"/>
<path opacity="0.94" d="M38.4028 237.655V229.014C38.4028 228.093 38.8511 227.669 39.8306 227.669H42.9185C44.9189 227.669 46.1724 228.749 46.1724 230.458C46.1724 231.729 45.4834 232.633 44.2964 232.949V233.032C45.8237 233.206 46.7866 234.26 46.7866 235.812C46.7866 237.771 45.2593 239 42.8354 239H39.8306C38.8511 239 38.4028 238.585 38.4028 237.655ZM40.2788 232.459H41.8726C43.5576 232.459 44.3047 231.895 44.3047 230.774C44.3047 229.77 43.6489 229.164 42.5283 229.164H40.2788V232.459ZM40.2788 237.506H42.0801C44.064 237.506 44.8691 236.941 44.8691 235.746C44.8691 234.576 44.0806 233.878 42.6777 233.878H40.2788V237.506ZM53.4521 237.863C52.9707 238.676 52.0908 239.125 51.0034 239.125C49.2935 239.125 48.1396 238.045 48.1396 236.452C48.1396 234.833 49.3184 233.845 51.2773 233.837H53.4688V233.057C53.4688 232.069 52.8628 231.554 51.7422 231.554C51.0449 231.554 50.5635 231.803 50.0571 232.318C49.833 232.534 49.6172 232.617 49.3018 232.617C48.895 232.617 48.6294 232.343 48.6294 231.944C48.6294 231.438 48.978 230.94 49.7168 230.542C50.248 230.251 50.9453 230.093 51.8584 230.093C54.0747 230.093 55.3115 231.156 55.3115 233.065V238.087C55.3115 238.718 54.9878 239.083 54.415 239.083C53.9087 239.083 53.585 238.776 53.5435 238.253V237.863H53.4521ZM49.9907 236.36C49.9907 237.174 50.6299 237.722 51.5762 237.722C52.647 237.722 53.4688 236.991 53.4688 236.045V235.099H51.5347C50.5552 235.099 49.9907 235.555 49.9907 236.36ZM57.1958 235.273V233.912C57.1958 231.612 58.582 230.06 61.0059 230.06C61.7612 230.06 62.5913 230.226 63.2637 230.641C63.8115 230.99 64.2847 231.529 64.2847 232.094C64.2847 232.542 64.0107 232.891 63.5293 232.891C63.1226 232.891 62.915 232.633 62.7158 232.409C62.3091 231.886 61.7778 231.612 61.0723 231.612C59.7441 231.612 59.0884 232.592 59.0884 234.011V235.173C59.0884 236.601 59.6943 237.622 61.0889 237.622C61.7197 237.622 62.3008 237.398 62.7656 236.809C62.9565 236.609 63.1807 236.335 63.5708 236.335C63.9775 236.335 64.3096 236.601 64.3096 237.116C64.3096 237.68 63.8613 238.236 63.2222 238.618C62.5415 239.025 61.7612 239.166 61.0142 239.166C58.6152 239.166 57.1958 237.68 57.1958 235.273ZM68.2109 238.062C68.2109 238.709 67.8789 239.083 67.2979 239.083C66.7085 239.083 66.3682 238.709 66.3682 238.062V228.035C66.3682 227.387 66.7002 227.014 67.2896 227.014C67.8706 227.014 68.2109 227.387 68.2109 228.035V233.854H68.3022L71.5645 230.533C71.8633 230.226 72.104 230.102 72.3862 230.102C72.8345 230.102 73.1582 230.425 73.1582 230.874C73.1582 231.123 73.0586 231.338 72.8179 231.587L70.4355 234.003L73.1167 237.439C73.3325 237.705 73.4404 237.962 73.4404 238.195C73.4404 238.651 73.0586 239.042 72.5938 239.042C72.2866 239.042 72.0293 238.892 71.7637 238.552L69.0659 235.082L68.2109 235.896V238.062ZM78.8608 236.667V231.753H78.3296C77.8232 231.753 77.5161 231.471 77.5161 231.015C77.5161 230.55 77.8149 230.276 78.3296 230.276H78.894V228.989C78.894 228.358 79.2178 227.993 79.7905 227.993C80.3633 227.993 80.6953 228.358 80.6953 228.989V230.276H81.708C82.2227 230.276 82.5132 230.55 82.5132 231.015C82.5132 231.471 82.2144 231.753 81.708 231.753H80.7119V236.535C80.7119 237.398 80.9277 237.664 81.6582 237.664C81.8906 237.664 82.0483 237.639 82.231 237.639C82.5796 237.639 82.8286 237.871 82.8286 238.236C82.8286 238.519 82.6958 238.759 82.4219 238.917C82.1479 239.075 81.7495 239.158 81.21 239.158C79.5498 239.158 78.8608 238.469 78.8608 236.667ZM87.8257 230.06C90.1084 230.06 91.7437 231.521 91.7437 234.011V235.19C91.7437 237.722 90.1084 239.166 87.8257 239.166C85.5347 239.166 83.8994 237.722 83.8994 235.19V234.02C83.8994 231.521 85.5347 230.06 87.8257 230.06ZM87.8257 231.554C86.5723 231.554 85.7837 232.542 85.7837 234.103V235.124C85.7837 236.709 86.5723 237.68 87.8257 237.68C89.0874 237.68 89.8511 236.709 89.8511 235.124V234.103C89.8511 232.542 89.0874 231.554 87.8257 231.554ZM104.626 238.062C104.626 238.709 104.286 239.083 103.705 239.083C103.116 239.083 102.784 238.709 102.784 238.062V233.604C102.784 232.368 102.136 231.67 101.007 231.67C99.7539 231.67 98.9404 232.608 98.9404 234.111V238.062C98.9404 238.709 98.6001 239.083 98.019 239.083C97.4297 239.083 97.0977 238.709 97.0977 238.062V228.035C97.0977 227.387 97.438 227.014 98.019 227.014C98.6001 227.014 98.9404 227.387 98.9404 228.035V231.803H99.0317C99.3306 230.791 100.426 230.093 101.696 230.093C103.531 230.093 104.626 231.214 104.626 233.082V238.062ZM110.404 230.06C112.687 230.06 114.322 231.521 114.322 234.011V235.19C114.322 237.722 112.687 239.166 110.404 239.166C108.113 239.166 106.478 237.722 106.478 235.19V234.02C106.478 231.521 108.113 230.06 110.404 230.06ZM110.404 231.554C109.15 231.554 108.362 232.542 108.362 234.103V235.124C108.362 236.709 109.15 237.68 110.404 237.68C111.666 237.68 112.429 236.709 112.429 235.124V234.103C112.429 232.542 111.666 231.554 110.404 231.554ZM128.599 238.062C128.599 238.718 128.259 239.083 127.678 239.083C127.097 239.083 126.765 238.718 126.765 238.062V233.38C126.765 232.276 126.142 231.646 125.096 231.646C124.075 231.646 123.345 232.417 123.345 233.538V238.062C123.345 238.718 123.021 239.083 122.448 239.083C121.867 239.083 121.543 238.718 121.543 238.062V233.43C121.543 232.326 120.888 231.646 119.858 231.646C118.837 231.646 118.132 232.393 118.132 233.521V238.062C118.132 238.718 117.792 239.083 117.21 239.083C116.621 239.083 116.289 238.718 116.289 238.062V231.156C116.289 230.533 116.638 230.151 117.202 230.151C117.75 230.151 118.082 230.517 118.099 231.123V231.654H118.19C118.505 230.683 119.394 230.093 120.581 230.093C121.809 230.093 122.714 230.716 123.004 231.745H123.096C123.494 230.708 124.474 230.093 125.744 230.093C127.545 230.093 128.599 231.114 128.599 232.849V238.062ZM130.55 235.248V234.003C130.55 231.662 132.102 230.06 134.368 230.06C136.535 230.06 138.07 231.621 138.07 233.779C138.07 234.75 137.838 235.049 137.107 235.049H132.426V235.464C132.426 236.817 133.272 237.68 134.659 237.68C135.364 237.68 135.887 237.481 136.311 237.099C136.742 236.734 136.875 236.643 137.166 236.643C137.564 236.643 137.838 236.933 137.838 237.356C137.838 237.68 137.639 238.029 137.298 238.303C136.734 238.842 135.705 239.166 134.551 239.166C132.077 239.166 130.55 237.688 130.55 235.248ZM132.426 233.762H136.286V233.737C136.286 232.401 135.547 231.538 134.393 231.538C133.206 231.538 132.426 232.426 132.426 233.737V233.762Z" fill="white"/>
<path d="M126.262 22.0898V22.5713C126.262 23.3682 126.345 24.0516 126.511 24.6216C126.683 25.1916 126.924 25.6287 127.233 25.9331C127.543 26.2375 127.911 26.3896 128.337 26.3896C128.769 26.3896 129.137 26.2375 129.441 25.9331C129.751 25.6232 129.989 25.186 130.155 24.6216C130.321 24.0516 130.404 23.3682 130.404 22.5713V22.0898C130.404 21.2985 130.321 20.6178 130.155 20.0479C129.989 19.4779 129.751 19.0435 129.441 18.7446C129.137 18.4403 128.769 18.2881 128.337 18.2881C127.911 18.2881 127.543 18.4403 127.233 18.7446C126.924 19.0435 126.683 19.4779 126.511 20.0479C126.345 20.6123 126.262 21.293 126.262 22.0898ZM124.029 22.5879V22.0815C124.029 20.9471 124.201 19.9593 124.544 19.1182C124.893 18.277 125.391 17.624 126.038 17.1592C126.686 16.6888 127.46 16.4536 128.362 16.4536C129.264 16.4536 130.034 16.686 130.67 17.1509C131.312 17.6102 131.802 18.2604 132.139 19.1016C132.477 19.9427 132.646 20.936 132.646 22.0815V22.5879C132.646 23.4346 132.546 24.2038 132.347 24.8955C132.153 25.5872 131.868 26.1821 131.492 26.6802C131.115 27.1727 130.662 27.5518 130.13 27.8174C129.599 28.083 128.996 28.2158 128.321 28.2158C127.424 28.2158 126.655 27.9862 126.013 27.5269C125.371 27.062 124.879 26.409 124.536 25.5679C124.198 24.7212 124.029 23.7279 124.029 22.5879ZM134.895 25.4932H137.028C137.073 25.6481 137.164 25.8003 137.302 25.9497C137.446 26.0936 137.634 26.2126 137.867 26.3066C138.099 26.4007 138.368 26.4478 138.672 26.4478C139.109 26.4478 139.483 26.3454 139.792 26.1406C140.108 25.9359 140.362 25.6536 140.556 25.2939C140.75 24.9342 140.888 24.5164 140.971 24.0405C141.06 23.5646 141.096 23.0527 141.079 22.5049H140.955C140.849 22.776 140.681 23.0334 140.448 23.2769C140.216 23.5203 139.917 23.7168 139.552 23.8662C139.192 24.0101 138.766 24.082 138.273 24.082C137.632 24.082 137.031 23.9409 136.472 23.6587C135.919 23.3709 135.471 22.9504 135.127 22.397C134.79 21.8381 134.621 21.1546 134.621 20.3467C134.621 19.5332 134.804 18.8359 135.169 18.2549C135.54 17.6738 136.041 17.2284 136.671 16.9185C137.302 16.603 138.016 16.4453 138.813 16.4453C139.394 16.4453 139.947 16.5394 140.473 16.7275C140.999 16.9157 141.466 17.2284 141.876 17.6655C142.285 18.1027 142.606 18.6893 142.839 19.4253C143.077 20.1558 143.196 21.0661 143.196 22.1562C143.196 23.4844 143.024 24.5967 142.681 25.4932C142.344 26.3896 141.837 27.0675 141.162 27.5269C140.493 27.9806 139.651 28.2075 138.639 28.2075C138.035 28.2075 137.504 28.13 137.045 27.9751C136.591 27.8146 136.209 27.6043 135.899 27.3442C135.595 27.0841 135.357 26.7936 135.186 26.4727C135.02 26.1517 134.923 25.8252 134.895 25.4932ZM140.755 20.3301C140.755 19.8818 140.67 19.4972 140.498 19.1763C140.326 18.8553 140.089 18.6118 139.784 18.4458C139.485 18.2743 139.142 18.1885 138.755 18.1885C138.39 18.1885 138.058 18.2743 137.759 18.4458C137.46 18.6118 137.222 18.8553 137.045 19.1763C136.873 19.4917 136.788 19.8708 136.788 20.3135C136.788 20.7673 136.876 21.1491 137.053 21.459C137.23 21.7689 137.468 22.0041 137.767 22.1646C138.071 22.3195 138.406 22.397 138.771 22.397C139.131 22.397 139.46 22.3195 139.759 22.1646C140.064 22.0041 140.304 21.7716 140.481 21.4673C140.664 21.1629 140.755 20.7839 140.755 20.3301ZM145.097 26.7715C145.097 26.3343 145.235 25.9884 145.512 25.7339C145.794 25.4738 146.137 25.3438 146.541 25.3438C146.956 25.3438 147.305 25.4766 147.587 25.7422C147.869 26.0023 148.01 26.3454 148.01 26.7715C148.01 27.1921 147.866 27.5296 147.579 27.7842C147.296 28.0387 146.951 28.166 146.541 28.166C146.143 28.166 145.802 28.0387 145.52 27.7842C145.238 27.5296 145.097 27.1921 145.097 26.7715ZM152.127 22.0898V22.5713C152.127 23.3682 152.21 24.0516 152.376 24.6216C152.548 25.1916 152.789 25.6287 153.099 25.9331C153.409 26.2375 153.777 26.3896 154.203 26.3896C154.634 26.3896 155.002 26.2375 155.307 25.9331C155.617 25.6232 155.854 25.186 156.021 24.6216C156.187 24.0516 156.27 23.3682 156.27 22.5713V22.0898C156.27 21.2985 156.187 20.6178 156.021 20.0479C155.854 19.4779 155.617 19.0435 155.307 18.7446C155.002 18.4403 154.634 18.2881 154.203 18.2881C153.777 18.2881 153.409 18.4403 153.099 18.7446C152.789 19.0435 152.548 19.4779 152.376 20.0479C152.21 20.6123 152.127 21.293 152.127 22.0898ZM149.895 22.5879V22.0815C149.895 20.9471 150.066 19.9593 150.409 19.1182C150.758 18.277 151.256 17.624 151.903 17.1592C152.551 16.6888 153.326 16.4536 154.228 16.4536C155.13 16.4536 155.899 16.686 156.535 17.1509C157.177 17.6102 157.667 18.2604 158.004 19.1016C158.342 19.9427 158.511 20.936 158.511 22.0815V22.5879C158.511 23.4346 158.411 24.2038 158.212 24.8955C158.018 25.5872 157.733 26.1821 157.357 26.6802C156.981 27.1727 156.527 27.5518 155.996 27.8174C155.464 28.083 154.861 28.2158 154.186 28.2158C153.29 28.2158 152.52 27.9862 151.878 27.5269C151.236 27.062 150.744 26.409 150.401 25.5679C150.063 24.7212 149.895 23.7279 149.895 22.5879ZM165.575 28H163.35V18.8276H163.242C162.96 19.0269 162.675 19.2288 162.387 19.4336C162.099 19.6383 161.812 19.8431 161.524 20.0479C161.242 20.2471 160.957 20.4491 160.669 20.6538V18.5952C161.117 18.2743 161.565 17.9533 162.014 17.6323C162.462 17.3114 162.907 16.9904 163.35 16.6694H165.575V28Z" fill="white"/>
<path d="M38.9883 104.34H48.1875C50.8438 104.34 53.0443 104.854 54.7891 105.883C56.5339 106.898 57.8424 108.396 58.7148 110.375C59.5872 112.354 60.0234 114.77 60.0234 117.621C60.0234 120.486 59.5872 122.914 58.7148 124.906C57.8424 126.898 56.5273 128.415 54.7695 129.457C53.0247 130.486 50.8307 131 48.1875 131H38.9883V104.34ZM43.4219 108.07V127.27H47.7188C48.9557 127.27 50.0495 127.094 51 126.742C51.9635 126.378 52.7708 125.811 53.4219 125.043C54.0859 124.275 54.5872 123.285 54.9258 122.074C55.2773 120.863 55.4531 119.398 55.4531 117.68C55.4531 115.648 55.1862 113.917 54.6523 112.484C54.1185 111.052 53.2852 109.958 52.1523 109.203C51.0195 108.448 49.5417 108.07 47.7188 108.07H43.4219ZM81.2539 115.922C81.2539 114.086 80.9674 112.549 80.3945 111.312C79.8216 110.076 79.0339 109.151 78.0312 108.539C77.0417 107.914 75.9154 107.602 74.6523 107.602C73.3893 107.602 72.2565 107.914 71.2539 108.539C70.2643 109.151 69.4766 110.076 68.8906 111.312C68.3177 112.549 68.0312 114.086 68.0312 115.922V119.613C68.0312 121.449 68.3177 122.973 68.8906 124.184C69.4766 125.382 70.2643 126.28 71.2539 126.879C72.2565 127.465 73.3893 127.758 74.6523 127.758C75.9154 127.758 77.0417 127.465 78.0312 126.879C79.0339 126.28 79.8216 125.382 80.3945 124.184C80.9674 122.973 81.2539 121.449 81.2539 119.613V115.922ZM85.7461 119.613C85.7461 122.113 85.2904 124.255 84.3789 126.039C83.4805 127.823 82.1979 129.184 80.5312 130.121C78.8646 131.059 76.8984 131.527 74.6328 131.527C72.3542 131.527 70.388 131.059 68.7344 130.121C67.0807 129.184 65.8047 127.823 64.9062 126.039C64.0078 124.255 63.5586 122.113 63.5586 119.613V115.961C63.5586 113.435 64.0078 111.267 64.9062 109.457C65.8177 107.634 67.1068 106.241 68.7734 105.277C70.4401 104.301 72.4062 103.812 74.6719 103.812C76.9505 103.812 78.9167 104.301 80.5703 105.277C82.224 106.241 83.5 107.634 84.3984 109.457C85.2969 111.267 85.7461 113.435 85.7461 115.961V119.613ZM94.8477 131H90.668V104.34H94.5742L107.172 123.48H107.309V104.34H111.469V131H107.602L94.9648 111.801H94.8477V131ZM134.105 127.27V131H117.465V104.34H134.105V108.07H121.879V115.668H133.402V119.242H121.879V127.27H134.105Z" fill="white"/>
<defs>
<radialGradient id="paint0_radial_182_3311" cx="0" cy="0" r="1" gradientUnits="userSpaceOnUse" gradientTransform="translate(88 116) rotate(90) scale(82)">
<stop offset="0.3" stop-color="#FF453A"/>
<stop offset="1" stop-color="#FF375F" stop-opacity="0.3"/>
</radialGradient>
<radialGradient id="paint1_radial_182_3311" cx="0" cy="0" r="1" gradientUnits="userSpaceOnUse" gradientTransform="translate(88 116) rotate(90) scale(67)">
<stop offset="0.3" stop-color="#FF453A"/>
<stop offset="1" stop-color="#FF375F" stop-opacity="0.3"/>
</radialGradient>
<clipPath id="clip0_182_3311">
<rect width="6" height="6" fill="white" transform="translate(158.452 127.93)"/>
</clipPath>
<clipPath id="clip1_182_3311">
<rect width="6" height="6" fill="white" transform="translate(156.176 135.401)"/>
</clipPath>
<clipPath id="clip2_182_3311">
<rect width="6" height="6" fill="white" transform="translate(153.9 142.872)"/>
</clipPath>
<clipPath id="clip3_182_3311">
<rect width="6" height="6" fill="white" transform="translate(150.314 149.811)"/>
</clipPath>
<clipPath id="clip4_182_3311">
<rect width="6" height="6" fill="white" transform="translate(146.339 155.828)"/>
</clipPath>
<clipPath id="clip5_182_3311">
<rect width="6" height="6" fill="white" transform="translate(141.055 161.312)"/>
</clipPath>
<clipPath id="clip6_182_3311">
<rect width="6" height="6" fill="white" transform="translate(135.771 166.796)"/>
</clipPath>
<clipPath id="clip7_182_3311">
<rect width="6" height="6" fill="white" transform="translate(130.098 171.359)"/>
</clipPath>
<clipPath id="clip8_182_3311">
<rect width="6" height="6" fill="white" transform="translate(118.363 179.563)"/>
</clipPath>
<clipPath id="clip9_182_3311">
<rect width="6" height="6" fill="white" transform="translate(124.425 175.921)"/>
</clipPath>
</defs>
</svg>
