<svg width="1024" height="1024" viewBox="0 0 1024 1024" fill="none" xmlns="http://www.w3.org/2000/svg">
<rect width="1024" height="1024" fill="url(#paint0_radial_180_731)"/>
<path fill-rule="evenodd" clip-rule="evenodd" d="M297 426.685L297.995 373.601L484.627 374.097V259H540.866V374.097H727V427.181H668.273C650.522 450.829 612.831 500.803 604.072 511.519C593.123 524.914 580.681 532.356 578.192 533.348C576.201 534.142 574.708 535.994 574.211 536.821C573.547 539.798 572.021 546.545 571.225 549.72C570.777 551.504 568.821 561.507 566.668 572.521C564.031 586.01 561.097 601.014 560.275 604.292C558.782 610.245 558.285 649.438 558.782 649.934C559.021 650.172 560.638 649.838 562.363 649.482C564.231 649.096 566.228 648.684 566.745 648.942C567.741 649.438 571.225 653.903 573.713 659.36C574.111 664.123 572.552 672.92 571.722 676.724C574.045 679.204 579.088 684.661 580.681 686.646C582.671 689.126 583.667 698.056 583.169 704.506C582.671 710.955 583.667 715.916 584.662 718.893C585.657 721.87 587.648 730.304 587.15 733.28C586.653 736.257 580.183 741.218 576.201 740.226C572.97 739.421 570.067 741.556 567.492 743.45C566.894 743.89 566.313 744.317 565.75 744.691C565.998 742.716 565.752 741.846 565.198 739.882C564.638 737.899 563.764 734.799 562.764 728.319C561.289 718.761 563.639 709.475 565.564 701.875C566.236 699.218 566.856 696.768 567.243 694.584C568.438 687.837 565.418 684.165 563.759 683.173C563.262 683.504 561.271 684.761 557.289 687.142C556.493 699.842 545.677 731.461 540.368 745.683L539.87 965.459V1024H485.125V832.998C473.678 814.146 459.743 761.558 456.757 741.218C453.771 720.877 460.738 700.537 461.734 698.553C462.729 696.568 467.706 682.677 467.208 682.181C466.711 681.685 465.715 679.7 465.715 678.212C465.715 677.393 466.62 676.273 467.434 675.266C468.098 674.444 468.701 673.697 468.701 673.251V665.809C468.701 665.366 468.9 665.12 469.299 664.63C469.791 664.023 470.587 663.042 471.688 660.848C474.626 647.666 473.227 632.051 472.092 619.39C471.689 614.897 471.32 610.777 471.19 607.268C470.692 593.874 461.013 563.139 452.278 546.743C437.148 539.202 419.762 519.788 412.961 511.023L347.266 426.685H297ZM377.625 426.685H485.125V474.311C481.807 472.492 473.579 469.449 467.208 471.831C451.282 476.197 448.96 495.148 449.789 504.078C447.799 510.527 383.1 437.103 377.625 426.685ZM540.368 522.93V426.685L643.389 427.181C623.777 450.62 577.878 498.591 564.755 508.047C560.796 510.899 558.147 513.192 555.974 515.073C551.319 519.102 548.851 521.239 540.368 522.93Z" fill="black"/>
<defs>
<radialGradient id="paint0_radial_180_731" cx="0" cy="0" r="1" gradientUnits="userSpaceOnUse" gradientTransform="translate(512 528) rotate(90) scale(519.68)">
<stop offset="0.0001" stop-color="white"/>
<stop offset="0.355" stop-color="#FFECA8"/>
<stop offset="0.665" stop-color="#FFE68D"/>
<stop offset="1" stop-color="#EEE2C1"/>
</radialGradient>
</defs>
</svg>
