<svg width="1276" height="313" viewBox="0 0 1276 313" fill="none" xmlns="http://www.w3.org/2000/svg">
<path d="M234 87.2025C283 99 407.6 63.8 454 61C471.167 63.1667 496.2 72.8 459 94C405.5 107.5 184 137 175 140C166 143 60.5 171 157 173.5C253.5 176 563 123.5 569.5 123C576 122.5 866 80 879 75.5C892 71 1083 61.6718 1087 62.8316C759.62 -31.7334 526.875 -11.4748 234 87.2025Z" fill="#74C934"/>
<path d="M1274.5 164C1179.67 151.667 985.5 134.4 967.5 164C981.5 184 1178 200 1274.5 205.5V164Z" fill="#74C934"/>
<path d="M1274.5 246.5C1159.33 232.333 917.5 207.1 871.5 219.5C814 235 792.5 266.5 801 271.5C807.8 275.5 1119.5 278 1274.5 278.75V246.5Z" fill="#74C934"/>
<path d="M447 191C402.6 177.8 131.5 224.5 1.5 249.5V299.5C74.6667 293.167 244.1 278.6 336.5 271C428.9 263.4 462.333 294.5 467.5 311H510.5C509.333 311 507 309.2 507 302C507 293 580.5 291.5 600.5 281C620.5 270.5 544.5 243.5 530.5 250C516.5 256.5 490.5 246 486 243.5C481.5 241 489.5 209 447 191Z" fill="#74C934"/>
<path d="M1274.5 164V125.499C1208.31 100.724 1146.11 79.906 1087 62.8316C1083 61.6718 892 71 879 75.5C866 80 576 122.5 569.5 123C563 123.5 253.5 176 157 173.5C60.5 171 166 143 175 140C184 137 405.5 107.5 459 94C496.2 72.8 471.167 63.1667 454 61C407.6 63.8 283 99 234 87.2025C161.03 111.788 84.3283 141.241 1.5 174.999V249.5C131.5 224.5 402.6 177.8 447 191C489.5 209 481.5 241 486 243.5C490.5 246 516.5 256.5 530.5 250C544.5 243.5 620.5 270.5 600.5 281C580.5 291.5 507 293 507 302C507 309.2 509.333 311 510.5 311H1274.5V278.75C1119.5 278 807.8 275.5 801 271.5C792.5 266.5 814 235 871.5 219.5C917.5 207.1 1159.33 232.333 1274.5 246.5V205.5C1178 200 981.5 184 967.5 164C985.5 134.4 1179.67 151.667 1274.5 164Z" fill="#9BD963"/>
<path d="M1.5 311H467.5C462.333 294.5 428.9 263.4 336.5 271C244.1 278.6 74.6667 293.167 1.5 299.5V311Z" fill="#9BD963"/>
<path d="M1274.5 164V125.499C1208.31 100.724 1146.11 79.906 1087 62.8316M1274.5 164C1179.67 151.667 985.5 134.4 967.5 164C981.5 184 1178 200 1274.5 205.5M1274.5 164V205.5M1274.5 205.5V246.5M1274.5 246.5C1159.33 232.333 917.5 207.1 871.5 219.5C814 235 792.5 266.5 801 271.5C807.8 275.5 1119.5 278 1274.5 278.75M1274.5 246.5V278.75M1274.5 278.75V311H510.5M1.5 249.5V174.999C84.3283 141.241 161.03 111.788 234 87.2025M1.5 249.5C131.5 224.5 402.6 177.8 447 191C489.5 209 481.5 241 486 243.5C490.5 246 516.5 256.5 530.5 250C544.5 243.5 620.5 270.5 600.5 281C580.5 291.5 507 293 507 302C507 309.2 509.333 311 510.5 311M1.5 249.5V299.5M510.5 311H467.5M467.5 311H1.5V299.5M467.5 311C462.333 294.5 428.9 263.4 336.5 271C244.1 278.6 74.6667 293.167 1.5 299.5M234 87.2025C283 99 407.6 63.8 454 61C471.167 63.1667 496.2 72.8 459 94C405.5 107.5 184 137 175 140C166 143 60.5 171 157 173.5C253.5 176 563 123.5 569.5 123C576 122.5 866 80 879 75.5C892 71 1083 61.6718 1087 62.8316M234 87.2025C526.875 -11.4748 759.62 -31.7334 1087 62.8316" stroke="#00720B" stroke-width="3"/>
<path d="M352.5 287L365.5 306.5" stroke="#00720B" stroke-width="3"/>
<path d="M381 299L377 264" stroke="#00720B" stroke-width="3"/>
<path d="M396 303.5C400 295.5 407.9 279.2 407.5 278" stroke="#00720B" stroke-width="3"/>
<path d="M198 196C201.167 202.833 207.8 216.6 209 217" stroke="#00720B" stroke-width="3"/>
<path d="M226 211.5L224 181.5" stroke="#00720B" stroke-width="3"/>
<path d="M238.5 215C240.333 208.167 244 194.1 244 192.5" stroke="#00720B" stroke-width="3"/>
<path d="M1090 177L1101.5 202.5" stroke="#00720B" stroke-width="3"/>
<path d="M1116.5 203.5L1108 157.5" stroke="#00720B" stroke-width="3"/>
<path d="M1130.5 203.5L1137 177.5" stroke="#00720B" stroke-width="3"/>
<path d="M950 85.5L958 117.5" stroke="#00720B" stroke-width="3"/>
<path d="M972 113.5C972.167 102.5 972.8 79.6 974 76" stroke="#00720B" stroke-width="3"/>
<path d="M983.5 117C988 108.5 997 91.1 997 89.5" stroke="#00720B" stroke-width="3"/>
</svg>
