<svg width="650" height="1094" viewBox="0 0 650 1094" fill="none" xmlns="http://www.w3.org/2000/svg">
<ellipse cx="325" cy="327.5" rx="325" ry="327.5" fill="#FFD074"/>
<ellipse cx="325.5" cy="321.5" rx="290.5" ry="292.5" fill="#FFBC4D"/>
<path fill-rule="evenodd" clip-rule="evenodd" d="M280.306 152.565C275.806 157.565 281.679 166.747 295.306 175.065C198.243 175.517 159.934 201.833 106.306 272.565C72.3974 342.495 61.9771 383.903 56.3063 461.065C54.1528 509.863 50.4255 595.315 62.2262 617.544C62.5989 618.247 63.1538 618.787 63.8556 619.16C66.4204 620.524 70.812 622.281 75.5112 622.716C78.3788 622.982 81.0575 624.985 81.3784 627.847C84.149 652.557 86.8188 663.097 94.3057 663.565C99.5467 663.892 113.416 663.795 123.393 663.657C126.487 663.615 128.869 666.37 129.008 669.461C129.538 681.254 136.924 695.998 163.862 691.155C165.678 690.829 167.563 691.434 168.728 692.864C171.499 696.266 173.373 698.964 174.884 701.14C180.165 708.747 181.013 709.967 200.306 712.565C217.106 698.565 242.972 672.731 253.806 661.565L264.806 666.065C301.178 677.199 326.18 679.293 386.806 668.565C402.612 663.239 410.051 659.639 421.806 652.565C434.469 663.418 438.951 681.226 440.062 685.638C440.179 686.105 440.259 686.421 440.306 686.565C440.706 687.765 440.473 701.065 440.306 707.565C441.14 708.065 443.506 709.565 446.306 711.565C465.865 714.748 475.079 703.037 482.982 692.991C483.767 691.994 484.539 691.013 485.306 690.065C519.306 695.664 523.473 675.065 521.306 664.065C529.14 665.565 547.706 667.065 559.306 661.065C570.906 655.065 571.806 632.565 570.806 622.065C572.752 623.232 581.924 621.379 585.692 619.786C586.864 619.291 588.034 618.108 588.913 617.19C595.971 609.816 598.302 585.974 595.806 461.065C588.562 375.726 575.94 335.346 542.806 272.565C489.215 200.182 450.09 171.928 339.806 176.565C339.806 176.565 372.806 141.065 358.306 135.565C343.806 130.065 320.806 166.565 320.806 166.565C304.689 154.741 284.806 147.565 280.306 152.565Z" fill="#8B2D13"/>
<path d="M361.332 705.065C369.437 694.222 377.772 682.219 386.806 668.565C326.18 679.293 301.178 677.199 264.806 666.065C262.788 672.665 262.736 676.801 267.306 686.065C268.472 690.565 276.806 701.365 300.806 708.565C324.806 715.765 351.157 709.231 361.332 705.065Z" fill="#FFD7B6"/>
<path d="M440.306 707.565C440.473 701.065 440.706 687.765 440.306 686.565C440.259 686.421 440.179 686.105 440.062 685.638C438.951 681.226 434.469 663.418 421.806 652.565C410.051 659.639 402.612 663.239 386.806 668.565C377.772 682.219 369.437 694.222 361.332 705.065C333.236 742.653 307.905 766.299 265.806 796.463C278.355 797.728 290.061 798.871 297.306 799.565V801.565V806.065L315.723 789.565C318.481 783.283 322.009 778.111 326.306 776.565C327.272 776.815 328.479 777.438 329.806 778.535C334.1 782.087 339.652 790.609 342.393 807.565C342.747 809.755 343.054 812.086 343.306 814.565C349.306 817.365 353.139 819.065 354.306 819.565V809.565V799.565L383.056 796.651L411.806 793.737C420.358 778.471 427.16 764.509 431.43 751.065C435.377 738.639 438.015 725.226 440.306 707.565Z" fill="#FF7375"/>
<path d="M297.306 862.065V878.065C275.655 881.506 257.224 883.743 241.306 884.629C222.472 891.607 184.206 906.164 181.806 908.565C178.806 911.565 176.306 916.565 177.306 918.065C178.306 919.565 178.806 927.565 192.806 927.065C204.006 926.664 224.806 920.898 233.806 918.065L306.575 887.868C307.061 887.666 307.531 887.426 307.98 887.15L350.806 860.815L326.306 852.065L297.306 862.065Z" fill="#FF7375"/>
<path d="M169.429 872.065C164.888 876.898 160.106 887.865 177.306 893.065C195.706 895.865 212.972 888.807 219.306 884.929C198.448 884.168 182.675 880.055 169.429 872.065Z" fill="#FF4B4D"/>
<path d="M219.306 884.929C212.972 888.807 195.706 895.865 177.306 893.065C159.314 907.984 153.646 933.688 169.429 939.755C171.63 940.6 174.247 941.065 177.306 941.065C212.571 942.61 233.143 937.312 271.306 916.065C304.219 895.87 322.213 884.21 350.806 860.815L307.98 887.15C307.531 887.426 307.061 887.666 306.575 887.868L233.806 918.065C224.806 920.898 204.006 926.664 192.806 927.065C178.806 927.565 178.306 919.565 177.306 918.065C176.306 916.565 178.806 911.565 181.806 908.565C184.206 906.164 222.472 891.607 241.306 884.629C233.379 885.07 226.074 885.176 219.306 884.929Z" fill="#FF4B4D"/>
<path d="M297.306 819.565L308.806 814.565C309.756 808.196 312.062 797.902 315.723 789.565L297.306 806.065V819.565Z" fill="#FF7375"/>
<path d="M308.806 814.565L297.306 819.565V862.065L326.306 852.065V776.565C322.009 778.111 318.481 783.283 315.723 789.565C312.062 797.902 309.756 808.196 308.806 814.565Z" fill="#FFD7B6"/>
<path d="M326.306 776.565V852.065L350.806 860.815L354.306 862.065V819.565C353.139 819.065 349.306 817.365 343.306 814.565C343.054 812.086 342.747 809.755 342.393 807.565C339.652 790.609 334.1 782.087 329.806 778.535C328.479 777.438 327.272 776.815 326.306 776.565Z" fill="#FFD7B6"/>
<path d="M253.806 661.565C242.972 672.731 217.106 698.565 200.306 712.565L199.891 713.138C184.392 734.538 149.555 782.642 142.454 819.565C139.773 833.505 141.045 845.851 148.806 854.565C155.176 861.718 161.894 867.519 169.429 872.065C182.675 880.055 198.448 884.168 219.306 884.929C226.074 885.176 233.379 885.07 241.306 884.629C257.224 883.743 275.655 881.506 297.306 878.065V862.065V819.565V806.065V801.565V799.565C290.061 798.871 278.355 797.728 265.806 796.463C307.905 766.299 333.236 742.653 361.332 705.065C351.157 709.231 324.806 715.765 300.806 708.565C276.806 701.365 268.472 690.565 267.306 686.065C262.736 676.801 262.788 672.665 264.806 666.065L253.806 661.565Z" fill="#FFF5E4"/>
<path d="M446.306 711.565C443.506 709.565 441.14 708.065 440.306 707.565C438.015 725.226 435.377 738.639 431.43 751.065C427.16 764.509 420.358 778.471 411.806 793.737L383.056 796.651L354.306 799.565V809.565V819.565V862.065V878.065C409.472 887.141 442.455 887.863 469.306 876.861C481.394 871.908 492.239 864.578 503.306 854.565C509.624 842.835 511.819 831.44 510.496 819.565C507.254 790.463 482.886 758.471 446.306 711.565Z" fill="#FFF5E4"/>
<path d="M354.306 878.065V862.065L350.806 860.815C322.213 884.21 304.219 895.87 271.306 916.065C233.143 937.312 212.571 942.61 177.306 941.065C174.247 941.065 171.63 940.6 169.429 939.755C168.169 945.172 167.001 950.241 165.905 955.065C159.522 983.138 155.552 1002.9 149.806 1034.56C161.201 1058.76 251.806 1094.56 312.306 1092.06C398.371 1091.24 440.584 1079.38 503.306 1034.56L474.955 903.065L469.306 876.861C442.455 887.863 409.472 887.141 354.306 878.065Z" fill="#FFF5E4"/>
<path d="M446.306 711.565C443.506 709.565 441.14 708.065 440.306 707.565M446.306 711.565C482.886 758.471 507.254 790.463 510.496 819.565C511.819 831.44 509.624 842.835 503.306 854.565C492.239 864.578 481.394 871.908 469.306 876.861M446.306 711.565C465.865 714.748 475.079 703.037 482.982 692.991C483.767 691.994 484.539 691.013 485.306 690.065C519.306 695.665 523.473 675.065 521.306 664.065C529.14 665.565 547.706 667.065 559.306 661.065C570.906 655.065 571.806 632.565 570.806 622.065C572.752 623.232 581.924 621.379 585.692 619.786C586.864 619.291 588.034 618.108 588.913 617.19C595.971 609.816 598.302 585.974 595.806 461.065C588.562 375.726 575.94 335.346 542.806 272.565C489.215 200.182 450.09 171.928 339.806 176.565C339.806 176.565 372.806 141.065 358.306 135.565C343.806 130.065 320.806 166.565 320.806 166.565C304.689 154.741 284.806 147.565 280.306 152.565C275.806 157.565 281.679 166.747 295.306 175.065C198.243 175.517 159.934 201.833 106.306 272.565C72.3974 342.495 61.9771 383.903 56.3063 461.065C54.1528 509.863 50.4255 595.315 62.2262 617.544C62.5989 618.247 63.1538 618.787 63.8556 619.16C66.4204 620.524 70.812 622.281 75.5112 622.716C78.3788 622.982 81.0575 624.985 81.3784 627.847C84.149 652.557 86.8188 663.097 94.3057 663.565C99.5467 663.892 113.416 663.795 123.393 663.657C126.487 663.615 128.869 666.37 129.008 669.461C129.538 681.254 136.924 695.998 163.862 691.155C165.678 690.829 167.563 691.434 168.728 692.864C171.499 696.266 173.373 698.964 174.884 701.14C180.165 708.747 181.013 709.967 200.306 712.565M440.306 707.565C440.473 701.065 440.706 687.765 440.306 686.565C440.259 686.421 440.179 686.105 440.062 685.638C438.951 681.226 434.469 663.418 421.806 652.565C410.051 659.639 402.612 663.239 386.806 668.565M440.306 707.565C438.015 725.226 435.377 738.639 431.43 751.065C427.16 764.509 420.358 778.471 411.806 793.737L383.056 796.651L354.306 799.565M200.306 712.565C217.106 698.565 242.972 672.731 253.806 661.565L264.806 666.065M200.306 712.565L199.891 713.138M200.306 712.565C200.169 712.753 200.031 712.944 199.891 713.138M224.306 792.065C235.487 793.355 251.216 794.992 265.806 796.463M265.806 796.463C278.355 797.728 290.061 798.871 297.306 799.565V801.565V806.065M265.806 796.463C307.905 766.299 333.236 742.653 361.332 705.065M386.806 668.565C377.772 682.219 369.437 694.222 361.332 705.065M386.806 668.565C326.18 679.293 301.178 677.199 264.806 666.065M354.306 799.565L428.306 792.065M354.306 799.565V809.565V819.565M297.306 819.565L308.806 814.565C309.756 808.196 312.062 797.902 315.723 789.565M297.306 819.565V862.065M297.306 819.565V806.065M326.306 776.565C326.306 794.565 326.306 834.398 326.306 852.065M326.306 776.565C322.009 778.111 318.481 783.283 315.723 789.565M326.306 776.565C327.272 776.815 328.479 777.438 329.806 778.535M326.306 776.565V852.065M326.306 852.065L297.306 862.065M326.306 852.065L350.806 860.815M297.306 862.065V878.065C275.655 881.506 257.224 883.743 241.306 884.629M354.306 819.565C353.139 819.065 349.306 817.365 343.306 814.565C343.054 812.085 342.747 809.755 342.393 807.565M354.306 819.565V862.065M354.306 862.065V878.065C409.472 887.141 442.455 887.863 469.306 876.861M354.306 862.065L350.806 860.815M169.429 872.065C161.894 867.519 155.176 861.718 148.806 854.565C141.045 845.851 139.773 833.505 142.454 819.565C149.555 782.642 184.392 734.538 199.891 713.138M169.429 872.065C164.888 876.898 160.106 887.865 177.306 893.065M169.429 872.065C182.675 880.055 198.448 884.168 219.306 884.929M177.306 893.065C195.706 895.865 212.972 888.807 219.306 884.929M177.306 893.065C159.314 907.984 153.646 933.688 169.429 939.755M219.306 884.929C226.074 885.176 233.379 885.07 241.306 884.629M350.806 860.815C322.213 884.21 304.219 895.87 271.306 916.065C233.143 937.312 212.571 942.61 177.306 941.065C174.247 941.065 171.63 940.6 169.429 939.755M350.806 860.815L307.98 887.15C307.531 887.426 307.061 887.666 306.575 887.868L233.806 918.065C224.806 920.898 204.006 926.665 192.806 927.065C178.806 927.565 178.306 919.565 177.306 918.065C176.306 916.565 178.806 911.565 181.806 908.565C184.206 906.165 222.472 891.607 241.306 884.629M169.429 939.755C168.169 945.172 167.001 950.241 165.905 955.065C159.522 983.138 155.552 1002.9 149.806 1034.56C161.201 1058.76 251.806 1094.56 312.306 1092.06C398.371 1091.24 440.584 1079.38 503.306 1034.56L474.955 903.065L469.306 876.861M361.332 705.065C351.157 709.231 324.806 715.765 300.806 708.565C276.806 701.365 268.472 690.565 267.306 686.065C262.736 676.801 262.788 672.665 264.806 666.065M297.306 806.065L315.723 789.565M329.806 778.535C347.639 758.378 385.306 713.365 393.306 694.565M329.806 778.535C334.1 782.087 339.652 790.609 342.393 807.565M342.393 807.565C347.031 802.565 357.006 790.965 359.806 784.565" stroke="#7A3C2E" stroke-width="3" stroke-linecap="round"/>
<path d="M167.306 955.064L170.306 941.564C178.972 943.564 201.747 943.262 226.806 936.564C269.091 925.263 329.806 880.564 350.806 862.564L353.306 863.064L353.806 878.064C407.336 886.615 434.315 890.347 468.306 879.064L477.806 923.064C246.806 847.064 415.806 945.564 167.306 955.064Z" fill="#FFD8B7"/>
<path d="M501.806 853.679C418.63 887.121 394.211 869.972 355.806 831.064V876.797C422.622 889.725 472.311 887.351 501.806 853.679Z" fill="#FFD8B7"/>
<path d="M149.806 853.679C232.981 887.121 257.4 869.972 295.806 831.064V876.797C224.989 889.52 175.244 887.142 149.806 853.679Z" fill="#FFD8B7"/>
<path d="M380.805 547.064C380.805 572.043 350.24 571.061 329.867 565.465C325.88 564.37 321.684 564.205 317.659 565.153C299.285 569.483 272.806 571.747 272.806 547.064C272.806 519.45 298.69 492.064 326.305 492.064C353.919 492.064 380.805 519.45 380.805 547.064Z" fill="#FFD7B6"/>
<path d="M218.125 318.064C208.139 343.826 180.267 363.4 164.805 371.064C162.037 394.083 151.577 442.875 130.554 474.564C133.805 492.564 168.305 527.564 195.305 540.564C206.305 546.564 236.205 552.564 249.805 540.564C254.338 536.564 265.305 518.564 275.305 501.564C283.805 490.064 298.505 479.564 323.305 479.564C348.105 479.564 368.805 488.564 376.305 500.564C382.243 510.064 388.805 529.064 400.805 540.564C407.232 546.724 429.805 554.564 455.305 540.564C480.805 526.564 498.231 517.564 521.018 474.564C503.167 448.654 490.164 396.501 485.305 369.564C464.105 364.364 438.805 333.064 432.305 318.064C356.416 314.681 336.135 274.849 326.738 261.813C326.311 261.22 325.419 261.315 325.074 261.958C300.652 307.584 243.759 318.394 218.125 318.064Z" fill="#FFD7B6"/>
<path d="M71.805 505.564C76.305 526.064 96.1298 540.467 125.821 538.064C123.615 529.143 122.216 520.476 121.412 512.564C120.389 502.497 120.331 493.653 120.805 487.064L117.081 453.079C116.921 451.626 115.735 450.491 114.274 450.461C85.1476 449.851 67.917 470.081 71.805 505.564Z" fill="#FFD7B6"/>
<path d="M534.306 450.064L532.305 486.564V486.784C532.305 491.049 532.305 495.466 531.697 501.064C530.795 509.357 528.559 520.241 523.009 537.064C541.275 540.398 578.206 536.964 579.806 496.564C581.406 456.164 550.139 448.731 534.306 450.064Z" fill="#FFD7B6"/>
<path d="M164.305 605.064C213.305 646.564 269.305 672.564 300.305 674.064C331.305 675.564 381.805 676.564 415.805 656.064C449.805 635.564 498.305 603.064 515.305 558.564C518.403 550.454 520.937 543.345 523.009 537.064C528.559 520.241 530.795 509.357 531.697 501.064C532.305 495.466 532.305 491.049 532.305 486.784V486.564C511.769 554.615 492.694 578.752 451.805 609.064C415.264 635.263 388.08 645.134 323.305 651.064C222.105 653.064 120.805 554.064 120.805 487.064C120.331 493.653 120.389 502.497 121.412 512.564C122.216 520.476 123.615 529.143 125.821 538.064C131.671 561.73 143.192 587.183 164.305 605.064Z" fill="#732009"/>
<ellipse cx="213.806" cy="500.564" rx="46" ry="20.5" fill="#FFB0C1"/>
<path d="M260.307 430.564C260.307 441.886 253.807 432.564 242.307 433.594C216.902 433.594 205.309 448.064 205.307 434.564C205.305 425.064 217.306 419.064 232.806 418.064C250.806 418.064 260.307 419.243 260.307 430.564Z" fill="#8A2D13"/>
<path d="M390.806 430.564C390.806 441.886 397.306 432.564 408.806 433.594C434.211 433.594 445.804 448.064 445.806 434.564C445.807 425.064 433.807 419.064 418.307 418.064C400.307 418.064 390.806 419.243 390.806 430.564Z" fill="#8A2D13"/>
<path d="M270.715 463.064C270.715 469.564 262.211 458.064 236.806 458.064C211.4 458.064 196.215 474.811 196.215 469.564C192.715 461.064 210.809 442.064 236.215 442.064C261.62 442.064 270.715 457.818 270.715 463.064Z" fill="#651C0B"/>
<path d="M380.805 463.064C380.805 469.564 389.309 458.064 414.714 458.064C440.12 458.064 455.305 474.811 455.305 469.564C458.805 461.064 440.711 442.064 415.305 442.064C389.9 442.064 380.805 457.818 380.805 463.064Z" fill="#651C0B"/>
<ellipse cx="437.806" cy="500.564" rx="46" ry="20.5" fill="#FFB0C1"/>
<path d="M367.806 528.438C367.806 537.274 349.449 544.438 326.806 544.438C304.162 544.438 285.806 537.274 285.806 528.438C285.806 516.438 304.162 532.938 326.806 532.938C349.449 532.938 367.806 516.938 367.806 528.438Z" fill="#67210F"/>
<path d="M552.503 386.939C552.939 388.643 553.491 390.259 554.12 391.899C554.998 394.191 555.75 396.519 556.692 398.788C558.479 403.096 560.186 407.437 561.983 411.74C564.6 418.011 567.156 424.344 570.133 430.454C572.259 434.817 574.673 439.084 577.635 442.935" stroke="#4B2909" stroke-width="5" stroke-linecap="round"/>
<path d="M527.47 372.852C526.593 374.078 526.639 375.72 526.661 377.152C526.716 380.645 527.106 384.074 527.56 387.532C528.631 395.681 530.766 403.48 533.348 411.267C535.728 418.443 538.724 425.336 542.868 431.684C544.448 434.105 546.078 436.438 547.945 438.649C549.005 439.905 550.211 441.055 551.217 442.349" stroke="#4B2909" stroke-width="5" stroke-linecap="round"/>
<path d="M500.558 362.217C499.971 366.692 500.601 371.31 500.861 375.791C501.141 380.62 501.281 385.34 502.175 390.107C504.205 400.932 507.332 411.531 510.427 422.106C513.172 431.484 517.452 440.344 521.06 449.411C522.596 453.272 524.175 457.146 526.022 460.841" stroke="#4B2909" stroke-width="5" stroke-linecap="round"/>
<path d="M438.731 281.317C438.334 281.885 439.139 283.207 439.307 283.77C439.874 285.665 440.258 287.644 440.746 289.563C442.368 295.949 444.124 301.838 447.315 307.669C450.801 314.038 454.494 320.093 458.952 325.849C461.15 328.688 463.48 331.398 465.959 333.995C467.453 335.561 468.782 337.109 470.713 338.074" stroke="#4B2909" stroke-width="5" stroke-linecap="round"/>
<path d="M460.353 287.399C459.59 286.636 461.799 289.009 462.405 289.901C463.203 291.076 463.8 292.365 464.382 293.655C466.66 298.699 469.375 303.136 472.465 307.706C479.238 317.725 486.659 328.209 496.827 335.021C506.562 341.543 517.192 346.722 527.871 351.463C533.71 354.055 539.662 356.544 545.613 358.87C549.892 360.543 553.992 361.626 558.551 362.173" stroke="#4B2909" stroke-width="5" stroke-linecap="round"/>
<path d="M485.128 285.146C483.952 286.117 485.531 286.937 486.279 287.661C488.243 289.561 490.134 291.521 492.185 293.329C497.726 298.215 503.941 302.137 509.953 306.392C516.495 311.023 523.242 315.402 530.849 318.054C535.98 319.843 541.235 321.266 546.389 322.984" stroke="#4B2909" stroke-width="5" stroke-linecap="round"/>
<path d="M508.326 279.741C507.461 281.11 510.612 281.074 511.229 281.105C513.699 281.228 515.921 282.775 518.036 283.895C522.65 286.34 527.659 287.194 532.65 288.525" stroke="#4B2909" stroke-width="5" stroke-linecap="round"/>
<path d="M342.11 241.002C341.14 241.649 345.249 245.647 345.739 246.22C347.946 248.806 349.97 251.531 352.07 254.203C355.684 258.802 360.059 262.313 364.533 266.102C374.043 274.158 384.553 281.105 395.539 287.023C399.231 289.012 402.867 290.809 406.925 291.953C409.522 292.685 411.977 292.67 414.633 292.579" stroke="#4B2909" stroke-width="5" stroke-linecap="round"/>
<path d="M357.313 236.719C364.377 241.25 369.848 247.49 377.526 251.202C388.115 256.321 399.385 259.269 410.703 262.28C424.845 266.042 439.702 270.012 454.463 269.06C463.236 268.494 471.808 266.862 480.406 265.117C486.754 263.828 493.052 262.52 499.272 260.719" stroke="#4B2909" stroke-width="3" stroke-linecap="round"/>
<path d="M345.568 208.634C346.276 209.54 346.924 209.772 347.894 210.322C349.65 211.317 351.236 212.58 353.001 213.57C359.509 217.222 366.865 219.797 373.909 222.166C385.368 226.02 397.314 230.699 409.483 231.358C423.208 232.1 436.543 227.967 450.25 228.294" stroke="#4B2909" stroke-width="3" stroke-linecap="round"/>
<path d="M341.22 190.607C344.215 190.526 347.019 192.213 349.676 193.401C354.194 195.42 358.738 197.483 363.359 199.254C369.405 201.572 375.448 202.604 381.925 202.542C388.604 202.477 395.147 201.706 401.765 200.869" stroke="#4B2909" stroke-width="3" stroke-linecap="round"/>
<path d="M238.368 200.393C235.714 199.862 243.719 201.303 246.423 201.433C253.309 201.764 260.293 200.912 267.175 200.659C279.29 200.213 291.081 196.702 302.754 193.717C305.88 192.918 312.289 192.054 313.252 188.203" stroke="#4B2909" stroke-width="3" stroke-linecap="round"/>
<path d="M159.132 259.821C157.876 259.3 154.191 257.659 155.528 257.91C156.323 258.059 157.122 258.418 157.898 258.648C161.783 259.795 165.522 261.092 169.484 261.998C186.77 265.949 204.305 265.245 221.897 265.045C231.002 264.942 239.782 262.219 248.491 259.809C256.441 257.609 264.053 254.487 271.783 251.67C276.439 249.973 281.074 248.303 285.316 245.695C286.857 244.748 288.386 243.715 289.839 242.636C290.397 242.222 290.958 241.934 291.266 241.318" stroke="#4B2909" stroke-width="3" stroke-linecap="round"/>
<path d="M203.104 228.474C202.984 227.041 207.641 229.562 208.352 229.901C211.55 231.427 215.216 232.134 218.692 232.707C230.39 234.635 242.457 232.215 253.945 229.974C259.948 228.803 265.921 227.592 271.892 226.273C278.281 224.862 284.816 223.554 290.879 221.049C294.314 219.629 297.87 218.185 300.941 216.054C301.997 215.321 303.294 213.889 301.279 213.889" stroke="#4B2909" stroke-width="3" stroke-linecap="round"/>
<path d="M244.028 290.514C243.678 290.056 243.315 289.459 242.831 289.123C242.675 289.016 242.18 288.99 242.226 288.99C244.162 288.99 245.805 288.645 247.68 288.071C252.3 286.659 256.79 284.517 261.116 282.387C266.975 279.503 272.958 276.46 278.422 272.882C287.629 266.852 297.772 261.262 304.302 252.129C305.004 251.148 312.754 240.633 310.639 239.576" stroke="#4B2909" stroke-width="3" stroke-linecap="round"/>
<path d="M208.764 281.371C210.431 283.224 208.944 287.527 208.401 289.547C207.068 294.5 204.981 299.304 202.62 303.841C199.371 310.086 195.734 316.118 192.074 322.127C190.056 325.441 188.364 330.122 184.818 332.092" stroke="#4B2909" stroke-width="3" stroke-linecap="round"/>
<path d="M119.513 283.984C120.168 283.355 120.634 283.169 121.521 283.101C123.685 282.934 125.915 282.51 128.051 282.133C129.992 281.791 131.949 281.278 133.663 280.283C135.303 279.33 136.809 278.136 138.669 277.671" stroke="#4B2909" stroke-width="3" stroke-linecap="round"/>
<path d="M164.574 285.725C163.99 285.513 163.352 287.04 163.159 287.37C162.066 289.23 160.755 290.84 159.277 292.413C154.628 297.36 149.268 301.676 143.567 305.341C137.913 308.976 132.168 312.468 126.31 315.766C122.666 317.816 118.859 319.945 114.724 320.772" stroke="#4B2909" stroke-width="3" stroke-linecap="round"/>
<path d="M97.0918 360.608C98.092 361.881 103.303 358.823 104.396 358.311C108.854 356.22 113.384 354.141 117.627 351.635C129.159 344.822 139.776 336.598 151.053 329.383C158.595 324.558 167.19 319.806 172.943 312.815C176.822 308.1 180.021 302.873 182.859 297.48" stroke="#4B2909" stroke-width="3" stroke-linecap="round"/>
<path d="M96.2208 387.166C96.74 390.54 95.6587 393.666 94.6003 396.841C92.5189 403.085 89.527 408.773 86.3041 414.497C82.9192 420.509 79.8843 426.814 76.1455 432.613C74.6619 434.915 73.2205 437.253 71.3928 439.301C70.6147 440.173 69.4672 441.044 69.228 442.24" stroke="#4B2909" stroke-width="3" stroke-linecap="round"/>
<path d="M122.923 372.278C122.923 376.667 122.987 380.905 122.082 385.226C119.943 395.444 116.768 405.324 113.338 415.171C110.804 422.447 108.635 429.37 104.44 435.868C103.273 437.677 102.085 439.484 100.853 441.249C100.305 442.034 99.7479 443.135 98.9614 443.659" stroke="#4B2909" stroke-width="3" stroke-linecap="round"/>
<path d="M149.155 364.712C149.723 368.049 149.666 371.133 149.015 374.45C147.972 379.764 146.852 385.059 145.722 390.355C143.215 402.093 140.72 413.85 137.482 425.415C134.855 434.799 132.04 444.135 130.35 453.748C129.945 456.048 130.005 460.698 127.715 462.072" stroke="#4B2909" stroke-width="3" stroke-linecap="round"/>
<path d="M73.7387 554.387C71.8183 554.59 71.7481 557.357 71.7209 558.815C71.6446 562.899 71.6596 567.01 71.7769 571.091C71.9342 576.56 72.6127 581.992 73.1782 587.429C73.5697 591.194 74.0095 594.535 75.5043 598.023" stroke="#4B2909" stroke-width="3" stroke-linecap="round"/>
<path d="M103.502 549.595C102.312 550.015 102.745 552.859 102.745 553.771C102.745 558.203 102.252 562.6 101.736 566.999C100.241 579.75 98.5038 592.959 99.4801 605.814C100.165 614.831 100.881 623.946 102.002 632.915C102.423 636.283 102.938 639.572 103.614 642.892C104.012 644.847 104.509 646.387 106.024 647.712" stroke="#4B2909" stroke-width="3" stroke-linecap="round"/>
<path d="M128.725 586.421C128.725 584.543 128.774 590.177 128.711 592.054C128.537 597.189 127.051 602.261 126.455 607.356C125.112 618.836 125.235 630.787 130.995 641.154" stroke="#4B2909" stroke-width="3" stroke-linecap="round"/>
<path d="M147.389 608.365C146.631 612.725 146.803 617.209 146.38 621.621C145.599 629.767 145.311 638.465 146.647 646.563C147.675 652.795 148.323 659.132 150.444 665.116C152.006 669.522 153.786 674.725 156.974 678.232" stroke="#4B2909" stroke-width="3" stroke-linecap="round"/>
<path d="M165.802 628.038C165.604 633.488 167.859 638.426 169.474 643.536C171.366 649.526 172.911 655.446 175.471 661.206C177.783 666.408 180.675 671.289 183.71 676.088C186.167 679.973 188.634 683.702 191.782 687.06" stroke="#4B2909" stroke-width="3" stroke-linecap="round"/>
<path d="M482.101 631.179C481.909 628.881 481.622 631.463 481.533 632.286C480.967 637.532 478.413 642.877 476.426 647.691C472.468 657.284 468.437 666.901 464.227 676.374" stroke="#4B2909" stroke-width="3" stroke-linecap="round"/>
<path d="M501.25 612.795C502.122 611.821 502.191 614.304 502.258 614.753C502.715 617.837 502.754 621.059 502.754 624.172C502.754 630.845 502.076 637.299 501.137 643.889C499.848 652.934 498.385 661.943 496.569 670.898C495.717 675.099 495.1 679.497 493.59 683.523" stroke="#4B2909" stroke-width="3" stroke-linecap="round"/>
<path d="M517.592 597.475C517.653 596.143 517.627 593.856 518.557 592.794C519.062 592.217 519.419 594.641 519.436 594.78C520.093 600.213 520.631 605.568 520.912 611.036C521.369 619.961 520.353 628.507 519.323 637.364C518.492 644.513 516.931 651.554 516.571 658.755" stroke="#4B2909" stroke-width="3" stroke-linecap="round"/>
<path d="M543.381 552.536C543.41 551.564 544.37 549.815 545.438 551.216C547.016 553.288 547.378 557.192 547.835 559.657C548.881 565.3 549.84 570.992 550.516 576.693C551.182 582.315 551.225 588.018 551.282 593.673C551.354 600.767 551.424 607.892 551.126 614.979C550.7 625.103 548.726 634.928 547.722 644.967" stroke="#4B2909" stroke-width="3" stroke-linecap="round"/>
<path d="M573.255 554.323C572.569 556.245 573.642 558.198 574.191 560.082C575.433 564.342 575.638 568.447 575.411 572.877C575.161 577.774 574.429 582.632 574.007 587.517C573.509 593.28 572.727 598.933 571.723 604.624" stroke="#4B2909" stroke-width="3" stroke-linecap="round"/>
<path d="M353.567 1012.27C351.16 1013.86 348.33 1015.2 345.571 1016.01C342.405 1016.95 339.073 1017.28 335.88 1018.17C331.7 1019.33 327.542 1020.43 323.299 1021.35C317.241 1022.66 311.199 1023.35 305.078 1024.23C303.123 1024.51 301.203 1024.9 299.275 1025.32C298.578 1025.47 298.025 1025.44 297.372 1025.23" stroke="#4B2909" stroke-width="3" stroke-linecap="round"/>
<path d="M296.537 1025.23C296.823 1026.79 297.495 1026.81 298.974 1027.27C301.384 1028.01 303.842 1028.6 306.285 1029.23C313.418 1031.07 320.617 1032.67 327.872 1033.95C339.92 1036.08 352.142 1038.06 364.419 1037.43C370.925 1037.1 377.384 1036.29 383.905 1036.04C387.828 1035.89 391.431 1035.18 395.244 1034.32C396.855 1033.96 398.489 1033.96 400.106 1033.63C400.642 1033.52 401.404 1033.53 401.882 1033.27C401.895 1033.26 400.216 1033.16 399.944 1033.16" stroke="#4B2909" stroke-width="3" stroke-linecap="round"/>
<path d="M403.287 1033.16C402.599 1034.97 400.973 1035.64 399.317 1036.49C394.307 1039.09 389.137 1041.24 383.812 1043.1C376.304 1045.72 368.774 1048.17 360.972 1049.77C351.634 1051.69 342.035 1052.7 332.538 1053.43C313.025 1054.92 293.565 1054.36 274.381 1050.34C268.723 1049.15 263.13 1047.57 257.75 1045.44C254.111 1044 250.622 1042.39 247.653 1039.85" stroke="#4B2909" stroke-width="3" stroke-linecap="round"/>
<path d="M326.306 584.564V666.064" stroke="#681C05" stroke-width="3" stroke-linecap="round"/>
<path d="M158.306 535.564C157.306 555.564 182.706 610.364 212.306 625.564" stroke="#681C05" stroke-width="3" stroke-linecap="round"/>
<path d="M199.306 552.064C198.305 572.064 221.308 628.564 249.806 650.564" stroke="#681C05" stroke-width="3" stroke-linecap="round"/>
<path d="M242.839 562.064C237.306 579.564 248.807 640.064 277.306 662.064" stroke="#681C05" stroke-width="3" stroke-linecap="round"/>
<path d="M272.806 569.064C268.306 586.564 275.806 639.064 298.307 665.564" stroke="#681C05" stroke-width="3" stroke-linecap="round"/>
<path d="M408.305 562.064C416.306 586.564 401.806 632.564 379.305 659.064" stroke="#681C05" stroke-width="3" stroke-linecap="round"/>
<path d="M452.306 552.064C452.305 576.064 433.306 622.564 410.805 649.064" stroke="#681C05" stroke-width="3" stroke-linecap="round"/>
<path d="M494.306 536.064C494.305 560.064 466.306 605.064 443.806 631.564" stroke="#681C05" stroke-width="3" stroke-linecap="round"/>
<path d="M302.831 582.064C299.129 598.023 297.806 638.564 312.305 666.064" stroke="#681C05" stroke-width="3" stroke-linecap="round"/>
<path d="M378.806 570.564C382.507 586.523 376.305 633.564 361.805 661.064" stroke="#681C05" stroke-width="3" stroke-linecap="round"/>
<path d="M350.28 582.064C353.981 598.023 355.305 638.564 340.805 666.064" stroke="#681C05" stroke-width="3" stroke-linecap="round"/>
</svg>
