<svg width="156" height="179" viewBox="0 0 156 179" fill="none" xmlns="http://www.w3.org/2000/svg">
<path d="M50.12 168.373C42.612 163.818 35.616 158.461 28.661 153.195C19.628 146.356 11.61 138.171 4.81299 129.497C10.297 140.913 19.286 152.927 30.571 159.874C36.702 163.648 43.022 166.986 50.231 168.565C50.186 168.489 50.167 168.451 50.12 168.373Z" fill="#717171"/>
<path d="M50.175 168.467C42.62 165.256 35.029 161.176 28.702 156.26C19.138 148.828 10.704 139.813 4.81299 129.497C10.297 140.913 19.286 152.927 30.571 159.874C36.702 163.648 43.022 166.986 50.231 168.565C50.21 168.526 50.198 168.508 50.175 168.467Z" fill="#717171"/>
<path d="M45.185 158.992C37.638 153.533 30.828 147.19 24.011 141.015C14.993 132.844 7.26698 123.342 1.02698 113.439C5.35898 126.061 13.521 139.622 25.052 148.249C31.138 152.802 37.763 156.984 45.281 159.19C45.241 159.111 45.224 159.071 45.185 158.992Z" fill="#717171"/>
<path d="M45.231 159.09C37.28 154.997 29.717 149.878 23.424 144.257C13.93 135.778 5.914 124.943 1.026 113.44C5.358 126.062 13.52 139.623 25.051 148.25C31.137 152.803 37.762 156.985 45.28 159.191C45.261 159.149 45.251 159.132 45.231 159.09Z" fill="#717171"/>
<path d="M40.411 147.63C33.542 141.816 27.503 135.212 21.401 128.804C13.061 120.048 6.17998 110.093 0.820984 99.866C3.84798 112.44 10.6 126.271 21.292 135.575C26.938 140.488 33.161 145.075 40.483 147.83C40.454 147.75 40.44 147.71 40.411 147.63Z" fill="#717171"/>
<path d="M40.446 147.728C32.893 143.114 25.833 137.552 20.104 131.596C11.442 122.593 4.53798 111.422 0.820984 99.8669C3.84798 112.441 10.6 126.272 21.292 135.576C26.938 140.489 33.161 145.076 40.483 147.831C40.468 147.788 40.462 147.769 40.446 147.728Z" fill="#717171"/>
<path d="M37.335 137.905C31.06 131.118 25.683 123.722 20.397 116.398C13.282 106.538 7.97098 95.724 4.32098 84.864C5.33298 97.621 9.97298 112.038 19.346 122.746C24.407 128.528 30.133 134.078 37.36 137.994C37.351 137.958 37.345 137.941 37.335 137.905Z" fill="#717171"/>
<path d="M37.349 137.95C30.175 132.232 23.742 125.612 18.769 118.809C11.382 108.702 6.17902 96.735 4.32202 84.864C5.33402 97.621 9.97402 112.038 19.347 122.746C24.408 128.528 30.134 134.078 37.361 137.994C37.356 137.977 37.352 137.968 37.349 137.95Z" fill="#717171"/>
<path d="M33.956 118.847C28.835 111.865 24.999 104.244 21.081 96.863C15.663 86.655 12.134 75.758 10.29 65.072C9.19599 77.306 11.564 91.171 19.126 103.064C22.968 109.105 27.925 114.908 34.005 119.393C33.983 119.174 33.976 119.065 33.956 118.847Z" fill="#717171"/>
<path d="M33.98 119.11C28.138 113.05 22.82 106.219 19.226 99.281C13.568 88.354 10.203 76.598 10.29 65.071C9.19599 77.305 11.564 91.17 19.126 103.063C22.968 109.104 27.925 114.907 34.005 119.392C33.993 119.28 33.989 119.223 33.98 119.11Z" fill="#717171"/>
<path d="M33.759 104.349C29.55 98.2611 26.616 91.5961 23.245 85.3031C18.425 76.3081 14.866 66.6901 12.731 57.1941C11.792 68.1641 13.758 81.1321 20.797 91.2201C24.338 96.2991 28.309 101.127 33.713 105.192C33.73 104.853 33.739 104.685 33.759 104.349Z" fill="#717171"/>
<path d="M33.735 104.738C28.778 99.5081 24.171 93.6791 21.047 87.7661C15.904 78.0311 12.774 67.5531 12.731 57.1931C11.792 68.1631 13.758 81.1311 20.797 91.2191C24.338 96.2981 28.309 101.126 33.713 105.191C33.722 105.01 33.726 104.919 33.735 104.738Z" fill="#717171"/>
<path d="M34.815 94.7521C31.313 88.9461 28.883 82.7531 26.131 76.8031C22.287 68.4901 19.692 59.7121 18.334 51.1121C16.896 60.9611 17.961 72.696 23.762 82.166C26.696 86.95 30.03 91.5441 34.688 95.5591C34.737 95.2341 34.763 95.0741 34.815 94.7521Z" fill="#717171"/>
<path d="M34.757 95.1241C30.589 90.1011 26.734 84.5791 24.257 79.0941C20.187 70.0761 17.827 60.4761 18.335 51.1111C16.897 60.9601 17.962 72.6951 23.763 82.1651C26.697 86.9491 30.031 91.5431 34.689 95.5581C34.716 95.3841 34.729 95.2971 34.757 95.1241Z" fill="#717171"/>
<path d="M35.794 89.607C33.085 83.013 31.56 76.21 29.858 69.567C27.385 59.909 26.651 50.041 27.36 40.636C23.618 50.761 22.368 63.181 26.581 74.223C28.726 79.841 31.36 85.351 35.597 90.533C35.675 90.162 35.716 89.978 35.794 89.607Z" fill="#717171"/>
<path d="M35.7 90.048C32.151 83.973 29.149 77.449 27.618 71.184C25.106 60.891 24.718 50.386 27.36 40.637C23.618 50.762 22.368 63.182 26.581 74.224C28.726 79.842 31.36 85.352 35.597 90.534C35.638 90.338 35.657 90.241 35.7 90.048Z" fill="#717171"/>
<path d="M39.03 78.3511C36.534 72.5761 35.194 66.573 33.387 60.774C30.768 52.364 29.418 43.6551 29.26 35.2581C26.344 44.3711 25.871 55.1571 29.992 65.1981C32.006 70.1031 34.916 74.9281 38.754 79.1261C38.862 78.8151 38.919 78.6591 39.03 78.3511Z" fill="#717171"/>
<path d="M38.903 78.7071C35.561 73.4751 32.591 67.8261 30.966 62.3791C28.278 53.3661 27.368 44.0311 29.261 35.2581C26.345 44.3711 25.872 55.1571 29.993 65.1981C32.007 70.1031 34.917 74.9281 38.755 79.1261C38.813 78.9581 38.843 78.8751 38.903 78.7071Z" fill="#717171"/>
<path d="M41.786 71.5409C40.124 65.3429 39.602 59.0589 38.686 52.9299C37.491 44.9159 37.418 36.8079 38.403 29.0769C34.403 37.2569 32.272 47.4969 34.899 56.9369C36.315 62.0169 38.186 67.0409 41.635 71.8769C41.696 71.7419 41.726 71.6749 41.786 71.5409Z" fill="#717171"/>
<path d="M41.714 71.7009C39.089 66.0779 36.962 60.0899 36.173 54.4809C34.952 45.8039 35.411 37.0289 38.403 29.0759C34.403 37.2559 32.272 47.4959 34.899 56.9359C36.315 62.0159 38.186 67.0399 41.635 71.8759C41.667 71.8059 41.683 71.7719 41.714 71.7009Z" fill="#717171"/>
<path d="M45.347 64.5201C44.097 58.7181 43.718 52.9121 43.22 47.1761C42.509 38.9811 43.329 30.8761 45.224 23.2581C40.578 31.0601 37.964 40.6791 39.64 50.4571C40.488 55.3921 42.218 60.426 45.033 65.08C45.157 64.855 45.22 64.7431 45.347 64.5201Z" fill="#717171"/>
<path d="M45.198 64.7831C43.094 59.2881 41.473 53.4931 41.102 48.1251C40.506 39.5051 41.612 30.9001 45.223 23.2581C40.577 31.0601 37.963 40.6791 39.639 50.4571C40.487 55.3921 42.217 60.426 45.032 65.08C45.099 64.961 45.132 64.9011 45.198 64.7831Z" fill="#717171"/>
<path d="M49.942 57.2141C49.143 54.5921 48.178 47.3971 47.294 42.8411C46.024 36.2931 45.855 29.7121 46.399 23.3701C43.305 29.9931 41.883 37.9981 44.045 45.8101C45.371 50.6101 47.5 54.6761 49.69 57.5781C49.79 57.4331 49.841 57.3601 49.942 57.2141Z" fill="#717171"/>
<path d="M49.825 57.3831C48.766 55.1281 46.272 49.2871 45.22 43.8201C43.865 36.7871 44.257 29.6621 46.4 23.3701C43.306 29.9931 41.884 37.9981 44.046 45.8101C45.372 50.6101 47.501 54.6761 49.691 57.5781C49.743 57.5001 49.77 57.4611 49.825 57.3831Z" fill="#717171"/>
<path d="M51.657 54.8451C51.114 49.6061 51.387 44.4331 51.434 39.3061C51.502 31.9771 52.836 24.7931 55.069 18.0801C50.251 24.7131 47.085 33.0141 47.743 41.7321C48.149 47.1111 49.597 51.8141 51.343 55.2621C51.468 55.0951 51.532 55.0121 51.657 54.8451Z" fill="#717171"/>
<path d="M51.507 55.0431C50.089 49.8611 49.288 44.5801 49.302 39.7971C49.323 32.3291 51.22 24.6551 55.069 18.0801C50.251 24.7131 47.085 33.0141 47.743 41.7321C48.149 47.1111 49.597 51.8141 51.343 55.2621C51.407 55.1751 51.442 55.1311 51.507 55.0431Z" fill="#717171"/>
<path d="M61.188 44.029C60.838 41.038 61.03 35.049 60.983 30.77C60.905 23.886 62.253 17.178 64.35 10.906C59.75 16.934 56.598 24.618 57.336 32.7C57.76 37.349 59.082 41.453 60.682 44.521C60.884 44.322 60.985 44.227 61.188 44.029Z" fill="#717171"/>
<path d="M60.9579 44.253C60.2349 41.611 58.9719 35.995 58.9519 30.86C58.9229 23.693 60.804 16.745 64.35 10.907C59.75 16.935 56.598 24.619 57.336 32.701C57.76 37.35 59.082 41.454 60.682 44.522C60.792 44.413 60.8469 44.36 60.9579 44.253Z" fill="#717171"/>
<path d="M66.497 39.2799C66.421 36.6069 67.333 30.6139 67.643 26.6879C68.118 20.6619 69.674 14.8449 71.85 9.38794C67.225 14.6519 63.813 21.3879 63.848 28.7279C63.868 32.9829 64.784 36.8039 66.03 39.6689C66.214 39.5129 66.31 39.4349 66.497 39.2799Z" fill="#717171"/>
<path d="M66.284 39.4569C65.841 37.0849 64.934 31.6439 65.477 27.1379C66.243 20.7929 68.112 14.6899 71.85 9.38892C67.225 14.6529 63.813 21.3889 63.848 28.7289C63.868 32.9839 64.784 36.8049 66.03 39.6699C66.132 39.5839 66.183 39.5419 66.284 39.4569Z" fill="#717171"/>
<path d="M70.874 35.8701C71.399 32.9621 73.683 27.6021 74.812 23.9801C76.675 17.9971 79.572 12.4001 83.082 7.26611C77.105 11.8521 72.162 18.0941 70.533 25.4331C69.617 29.5591 69.625 33.3821 70.154 36.4031C70.44 36.1901 70.585 36.0821 70.874 35.8701Z" fill="#717171"/>
<path d="M70.534 36.1211C70.626 33.4651 71.075 28.4701 72.442 24.0961C74.446 17.6821 78.124 11.8491 83.081 7.26709C77.104 11.8531 72.161 18.0951 70.532 25.4341C69.616 29.5601 69.624 33.3831 70.153 36.4041C70.306 36.2901 70.382 36.2331 70.534 36.1211Z" fill="#717171"/>
<path d="M76.483 32.064C77.155 29.481 79.583 24.292 81.129 20.415C83.559 14.329 87.204 8.76204 91.462 3.76904C84.991 7.91504 79.44 13.763 77.182 20.936C75.828 25.235 75.58 29.257 75.991 32.376C76.186 32.248 76.286 32.186 76.483 32.064Z" fill="#717171"/>
<path d="M76.251 32.208C76.487 29.859 77.313 24.389 79.235 19.727C81.799 13.501 86.031 7.97604 91.462 3.76904C84.991 7.91504 79.44 13.763 77.182 20.936C75.828 25.235 75.58 29.257 75.991 32.376C76.095 32.308 76.147 32.274 76.251 32.208Z" fill="#717171"/>
<path d="M83.936 27.8239C85.037 25.2719 88.726 19.8589 90.931 16.2779C94.308 10.7919 98.753 5.9259 103.757 1.6709C96.417 5.0389 89.82 10.1919 86.366 17.0199C84.312 21.0869 83.422 25.0159 83.334 28.1359C83.575 28.0099 83.694 27.9479 83.936 27.8239Z" fill="#717171"/>
<path d="M83.651 27.9709C84.274 25.6089 85.955 20.3789 88.619 16.0519C92.234 10.1799 97.4689 5.2029 103.758 1.6709C96.4179 5.0389 89.821 10.1919 86.367 17.0199C84.313 21.0869 83.423 25.0159 83.335 28.1359C83.462 28.0699 83.524 28.0359 83.651 27.9709Z" fill="#717171"/>
<path d="M89.818 25.045C92.771 21.114 96.375 17.607 99.687 13.995C104.437 8.81003 110.121 4.25404 116.372 0.488037C108.026 2.87504 100.218 7.13404 95.298 13.433C92.026 17.621 90.288 21.816 89.728 25.085C89.766 25.069 89.783 25.06 89.818 25.045Z" fill="#717171"/>
<path d="M89.775 25.065C91.791 20.584 94.408 16.189 97.748 12.754C102.754 7.60303 108.904 3.21604 116.373 0.488037C108.027 2.87504 100.219 7.13404 95.299 13.433C92.027 17.621 90.289 21.816 89.729 25.085C89.748 25.077 89.756 25.072 89.775 25.065Z" fill="#717171"/>
<path d="M95.105 22.9241C98.74 19.5271 102.997 16.6861 107.115 13.8071C113.166 9.5761 120.129 6.24411 127.521 3.80811C118.209 4.90711 109.21 7.95908 102.642 13.3311C98.562 16.6671 95.802 20.2291 94.247 23.2461C94.59 23.1161 94.762 23.0521 95.105 22.9241Z" fill="#717171"/>
<path d="M94.668 23.0881C97.711 19.2551 101.326 15.7651 105.193 13.0251C111.318 8.68709 119.033 5.36111 127.521 3.80811C118.209 4.90711 109.21 7.95908 102.642 13.3311C98.562 16.6671 95.802 20.2291 94.247 23.2461C94.414 23.1831 94.5 23.1501 94.668 23.0881Z" fill="#717171"/>
<path d="M103.334 20.2509C105.926 18.1969 110.734 15.6859 113.924 13.7489C120.006 10.0569 126.916 7.31793 134.149 5.35693C125.19 5.95793 116.395 8.33894 109.737 12.9779C106.09 15.5189 103.417 18.2739 101.674 20.7309C102.336 20.5349 102.666 20.4389 103.334 20.2509Z" fill="#717171"/>
<path d="M102.482 20.4949C104.572 18.4099 108.244 15.0599 112.216 12.8189C118.673 9.17894 125.96 6.40993 134.148 5.35693C125.189 5.95793 116.394 8.33894 109.736 12.9779C106.089 15.5189 103.416 18.2739 101.673 20.7309C101.998 20.6369 102.158 20.5889 102.482 20.4949Z" fill="#717171"/>
<path d="M109.172 18.7781C113.516 16.6461 118.242 15.0181 122.869 13.3961C130.105 10.8601 138.017 9.2581 146.119 8.5701C136.545 7.7571 126.877 8.75511 118.869 12.1571C113.937 14.2521 110.148 16.7961 107.627 19.1351C108.242 18.9881 108.551 18.9161 109.172 18.7781Z" fill="#717171"/>
<path d="M108.328 18.9711C112.322 16.3241 116.742 13.9181 121.367 12.3761C128.937 9.8551 137.242 8.3181 146.119 8.5701C136.545 7.7571 126.877 8.75511 118.869 12.1571C113.937 14.2521 110.148 16.7961 107.627 19.1351C107.908 19.0681 108.049 19.0351 108.328 18.9711Z" fill="#717171"/>
<path d="M55.935 49.5569C55.65 44.6609 55.98 39.8139 56.175 35.0379C56.462 28.0959 57.907 21.2729 60.204 14.9299C55.433 21.0169 52.227 28.7269 52.591 36.9059C52.82 42.0179 54.048 46.5479 55.611 49.9309C55.739 49.7799 55.804 49.7059 55.935 49.5569Z" fill="#717171"/>
<path d="M55.78 49.732C54.604 44.78 54.001 39.742 54.155 35.198C54.393 28.186 56.376 21.016 60.204 14.929C55.433 21.016 52.227 28.726 52.591 36.905C52.82 42.017 54.048 46.547 55.611 49.93C55.677 49.852 55.712 49.811 55.78 49.732Z" fill="#717171"/>
<path d="M34.509 123.88C29.12 118.172 24.751 111.735 20.196 105.62C13.458 96.5701 8.19396 86.5331 4.50696 76.4651C5.50696 88.4981 9.94795 102.354 19.1109 112.167C23.6189 116.997 28.486 121.486 34.654 124.928C34.593 124.508 34.563 124.299 34.509 123.88Z" fill="#717171"/>
<path d="M34.573 124.361C28.51 119.512 23.218 114.062 18.643 108.319C11.196 98.9691 6.33998 87.4021 4.50598 76.4651C5.50598 88.4981 9.94699 102.354 19.11 112.167C23.618 116.997 28.485 121.486 34.653 124.928C34.622 124.7 34.604 124.588 34.573 124.361Z" fill="#717171"/>
<path d="M155.463 20.374C147.012 19.03 138.58 18.274 130.207 17.753C124.723 17.412 119.262 17.431 113.916 17.81C113.164 17.946 112.793 18.015 112.049 18.163C117.502 18.683 122.988 19.08 128.381 19.424C137.381 19.996 146.465 20.235 155.463 20.374Z" fill="#717171"/>
<path d="M155.463 20.3741C147.037 19.7351 138.559 19.0221 130.203 18.5611C124.369 18.2401 118.49 18.0001 112.682 18.0391C112.428 18.0881 112.301 18.1131 112.049 18.1621C117.502 18.6821 122.988 19.0791 128.381 19.4231C137.381 19.9961 146.465 20.2351 155.463 20.3741Z" fill="#717171"/>
<path d="M114.086 17.796C118.908 16.574 124.01 15.899 129.002 15.18C137.211 13.997 145.918 13.809 154.635 14.553C144.721 12.052 135.059 11.802 126.088 13.234C120.996 14.045 115.924 15.881 111.541 18.283C112.553 18.076 113.06 17.98 114.086 17.796Z" fill="#717171"/>
<path d="M112.35 18.12C117.471 16.144 122.987 14.661 128.387 13.876C136.477 12.699 145.575 12.781 154.635 14.553C144.721 12.052 135.059 11.802 126.088 13.234C120.996 14.045 115.924 15.881 111.541 18.283C111.863 18.215 112.025 18.184 112.35 18.12Z" fill="#717171"/>
<path d="M50.3639 169.595C50.1859 169.522 52.1079 155.734 54.9279 149.608C57.9909 142.949 66.1249 130.767 66.1249 130.767C66.2379 130.828 61.3869 147.026 58.0019 154.57C55.7099 159.68 50.3639 169.595 50.3639 169.595Z" fill="#717171"/>
<path d="M50.3639 169.595C50.3169 169.571 54.4769 157.47 56.9679 151.618C59.9369 144.636 66.1259 130.766 66.1259 130.766C66.1399 130.773 61.3879 147.025 58.0029 154.569C55.7099 159.68 50.3639 169.595 50.3639 169.595Z" fill="#717171"/>
<path d="M51.05 140.008C47.794 145.496 45.874 151.781 44.878 158.25C45.003 158.516 45.066 158.647 45.192 158.913C48.688 154.392 51.579 149.458 54.481 144.587C58.977 137.042 62.592 128.833 66.194 120.753C60.134 126.405 55.214 132.989 51.05 140.008Z" fill="#717171"/>
<path d="M53.712 141.414C50.569 146.982 47.567 152.692 45.069 158.65C45.118 158.755 45.141 158.807 45.192 158.913C48.688 154.392 51.579 149.458 54.481 144.587C58.977 137.042 62.592 128.833 66.194 120.753C61.954 127.597 57.649 134.44 53.712 141.414Z" fill="#717171"/>
<path d="M48.183 129.86C44.337 134.779 41.753 140.62 40.097 146.726C40.193 146.996 40.24 147.13 40.337 147.402C44.441 143.397 47.972 138.923 51.499 134.506C56.95 127.678 61.55 120.081 66.079 112.594C59.153 117.464 53.239 123.392 48.183 129.86Z" fill="#717171"/>
<path d="M51.093 131.391C47.251 136.464 43.5209 141.666 40.2469 147.154C40.2839 147.255 40.3 147.302 40.337 147.403C44.441 143.398 47.9719 138.924 51.4989 134.507C56.9499 127.679 61.5499 120.082 66.0789 112.595C61.0419 118.832 55.905 125.035 51.093 131.391Z" fill="#717171"/>
<path d="M45.827 120.387C41.829 125.213 38.929 130.856 36.878 136.808C36.982 137.2 37.032 137.395 37.138 137.788C41.212 133.705 44.872 129.277 48.554 124.908C54.345 118.038 59.417 110.512 64.409 103.051C57.28 107.952 51.188 113.914 45.827 120.387Z" fill="#717171"/>
<path d="M48.308 121.799C44.294 126.782 40.417 131.934 37.035 137.396C37.076 137.552 37.096 137.629 37.139 137.788C41.213 133.705 44.873 129.277 48.555 124.908C54.346 118.038 59.418 110.512 64.41 103.051C58.972 109.252 53.438 115.43 48.308 121.799Z" fill="#717171"/>
<path d="M46.685 100.36C41.371 104.228 37.212 109.239 33.654 114.556C33.666 114.819 33.672 114.95 33.685 115.211C38.828 112.192 43.599 108.729 48.363 105.315C55.752 100.02 62.519 93.9062 69.132 87.8032C60.933 91.0392 53.503 95.3982 46.685 100.36Z" fill="#717171"/>
<path d="M48.788 102.399C43.556 106.343 38.409 110.445 33.671 114.915C33.677 115.034 33.679 115.094 33.685 115.212C38.828 112.193 43.599 108.73 48.363 105.316C55.752 100.021 62.519 93.9072 69.132 87.8042C62.325 92.6472 55.401 97.4162 48.788 102.399Z" fill="#717171"/>
<path d="M47.86 94.536C42.346 97.14 37.932 101.076 33.534 104.964C33.522 105.159 33.516 105.258 33.507 105.455C38.976 103.832 44.093 101.592 49.112 99.344C56.919 95.847 64.198 91.199 71.089 86.438C62.874 88.288 55.091 91.122 47.86 94.536Z" fill="#717171"/>
<path d="M49.905 96.772C44.366 99.442 38.833 102.19 33.52 105.196C33.516 105.3 33.512 105.351 33.506 105.455C38.975 103.832 44.092 101.592 49.111 99.344C56.918 95.847 64.197 91.199 71.088 86.438C64.14 90.026 56.962 93.372 49.905 96.772Z" fill="#717171"/>
<path d="M49.12 86.975C43.688 88.976 39.099 92.164 34.528 95.323C34.499 95.511 34.483 95.603 34.456 95.793C39.712 94.77 44.726 93.175 49.61 91.448C57.303 88.726 64.44 84.94 71.225 80.918C63.532 82.265 56.134 84.39 49.12 86.975Z" fill="#717171"/>
<path d="M50.558 89.166C45.187 91.211 39.755 93.273 34.494 95.544C34.48 95.643 34.473 95.692 34.457 95.792C39.713 94.769 44.727 93.174 49.611 91.447C57.304 88.725 64.441 84.939 71.226 80.917C64.487 83.891 57.468 86.533 50.558 89.166Z" fill="#717171"/>
<path d="M53.659 78.8571C46.778 81.5291 40.968 85.9131 35.436 90.3411C35.391 90.5561 35.37 90.6651 35.325 90.8821C40.794 89.1151 46.011 86.8981 51.175 84.6971C59.204 81.2731 66.804 76.9241 74.06 72.4011C66.97 74.0471 60.167 76.3291 53.659 78.8571Z" fill="#717171"/>
<path d="M52.126 82.2621C46.417 84.8451 40.776 87.5731 35.382 90.6021C35.359 90.7131 35.347 90.7711 35.325 90.8831C40.794 89.1161 46.011 86.8991 51.175 84.6981C59.204 81.2741 66.804 76.9251 74.06 72.4021C66.823 75.7921 59.409 78.9641 52.126 82.2621Z" fill="#717171"/>
<path d="M55.2 72.9632C49.247 74.0612 43.932 76.4862 38.643 78.8432C38.579 79.0292 38.547 79.1242 38.481 79.3122C43.874 79.1352 49.1259 78.3882 54.2619 77.4802C62.4099 76.0402 70.168 73.4582 77.59 70.5852C69.942 70.7712 62.409 71.6312 55.2 72.9632Z" fill="#717171"/>
<path d="M55.587 75.4662C49.927 76.6112 44.185 77.7352 38.567 79.0632C38.534 79.1632 38.516 79.2122 38.481 79.3122C43.874 79.1352 49.1259 78.3882 54.2619 77.4802C62.4099 76.0402 70.168 73.4582 77.59 70.5852C70.384 72.4702 62.931 73.9802 55.587 75.4662Z" fill="#717171"/>
<path d="M57.763 65.8503C51.79 66.9643 46.343 69.3402 41.32 72.0942C41.32 72.0982 41.318 72.0992 41.318 72.1022C46.812 71.9422 52.16 71.1602 57.386 70.2362C65.21 68.8522 72.714 66.4733 79.863 63.7393C72.304 63.7703 64.868 64.5253 57.763 65.8503Z" fill="#717171"/>
<path d="M58.698 68.3842C52.907 69.5372 47.044 70.7122 41.317 72.0982V72.1013C46.811 71.9423 52.159 71.1602 57.385 70.2362C65.209 68.8522 72.713 66.4733 79.862 63.7393C72.931 65.5393 65.757 66.9772 58.698 68.3842Z" fill="#717171"/>
<path d="M61.44 60.7342C55.592 61.4532 50.157 63.1682 44.833 65.0292C44.776 65.1312 44.749 65.1802 44.694 65.2822C50.059 65.3952 55.333 64.9722 60.503 64.3942C68.534 63.5012 76.308 61.5852 83.757 59.3172C76.175 59.2452 68.726 59.8382 61.44 60.7342Z" fill="#717171"/>
<path d="M61.9719 62.6441C56.2469 63.4131 50.4469 64.1721 44.7649 65.1531C44.7379 65.2051 44.7219 65.2301 44.6949 65.2831C50.0599 65.3961 55.3339 64.9731 60.5039 64.3951C68.5349 63.5021 76.3089 61.5861 83.7579 59.3181C76.5989 60.6771 69.2309 61.6711 61.9719 62.6441Z" fill="#717171"/>
<path d="M65.06 56.5512C59.716 56.2332 54.576 56.8572 49.476 57.5362C49.445 57.5822 49.427 57.6072 49.396 57.6532C53.05 58.6772 57.869 59.3572 63.043 59.7372C69.998 60.2462 76.924 59.5612 83.498 58.4042C77.331 57.5022 71.147 56.9162 65.06 56.5512Z" fill="#717171"/>
<path d="M64.538 58.4593C58.399 58.1933 51.089 57.6863 49.436 57.5923C49.418 57.6153 49.413 57.6283 49.395 57.6533C53.049 58.6773 57.868 59.3573 63.042 59.7373C69.997 60.2463 76.923 59.5613 83.497 58.4043C77.274 58.8043 70.895 58.7333 64.538 58.4593Z" fill="#717171"/>
<path d="M66.726 52.26C61.224 52.441 56.167 53.925 51.081 55.284C51.04 55.34 51.02 55.367 50.979 55.423C55.014 56.016 60.241 56.168 65.862 56.103C73.401 56.016 80.833 54.852 87.924 53.302C80.792 52.384 73.614 52.035 66.726 52.26Z" fill="#717171"/>
<path d="M67.395 54.662C61.979 54.88 56.46 55.022 51.03 55.352C51.009 55.38 51.001 55.395 50.979 55.422C55.014 56.015 60.241 56.167 65.862 56.102C73.401 56.015 80.833 54.851 87.924 53.301C81.167 54.037 74.229 54.388 67.395 54.662Z" fill="#717171"/>
<path d="M76.392 45.3322C71.542 44.3792 63.421 44.4143 60.646 44.2812C60.535 44.3902 60.48 44.4452 60.369 44.5542C63.869 45.9552 68.508 47.1813 73.576 48.1953C80.826 49.6453 88.249 49.8703 95.368 49.6693C89.07 47.9203 82.706 46.5732 76.392 45.3322Z" fill="#717171"/>
<path d="M75.435 47.1362C69.703 46.2032 62.958 44.8522 60.517 44.4082C60.456 44.4682 60.427 44.4972 60.369 44.5542C63.869 45.9552 68.508 47.1812 73.576 48.1952C80.826 49.6452 88.249 49.8702 95.368 49.6692C88.744 49.1792 82.034 48.2102 75.435 47.1362Z" fill="#717171"/>
<path d="M80.747 40.8711C76.132 39.7981 68.251 39.7211 65.915 39.5081C65.831 39.5791 65.79 39.6151 65.706 39.6871C68.858 41.1321 73.147 42.4691 77.872 43.5831C84.613 45.1711 91.558 45.5981 98.254 45.6181C92.461 43.7581 86.582 42.2291 80.747 40.8711Z" fill="#717171"/>
<path d="M79.696 42.6931C74.2 41.5661 67.843 40.0511 65.817 39.5911C65.772 39.6291 65.751 39.6481 65.706 39.6861C68.858 41.1311 73.147 42.4681 77.872 43.5821C84.613 45.1701 91.558 45.5971 98.254 45.6171C92.092 45.0061 85.859 43.9581 79.696 42.6931Z" fill="#717171"/>
<path d="M84.9339 36.6291C80.3979 35.9181 73.1069 36.2221 70.1339 36.1741C69.9639 36.3031 69.8779 36.3681 69.7059 36.4971C73.0929 37.5711 77.5029 38.4991 82.3229 39.2811C89.4799 40.4421 96.7459 40.5521 103.764 40.3181C97.5039 38.7621 91.1949 37.6121 84.9339 36.6291Z" fill="#717171"/>
<path d="M84.149 38.3162C78.78 37.6222 72.544 36.6692 69.932 36.3252C69.842 36.3932 69.797 36.4292 69.705 36.4972C73.092 37.5712 77.502 38.4992 82.322 39.2812C89.479 40.4422 96.745 40.5522 103.763 40.3182C97.252 39.9382 90.66 39.1582 84.149 38.3162Z" fill="#717171"/>
<path d="M90.81 33.4712C85.675 32.3852 77.833 32.4712 75.713 32.3242C75.647 32.3652 75.613 32.3862 75.549 32.4272C78.961 33.7982 83.606 35.0732 88.741 36.2162C95.901 37.8102 103.245 38.3742 110.37 38.5932C103.906 36.4882 97.344 34.8532 90.81 33.4712Z" fill="#717171"/>
<path d="M90.6639 35.3823C84.6029 34.2293 77.4519 32.7243 75.6339 32.3733C75.6009 32.3943 75.5829 32.4063 75.5499 32.4273C78.9619 33.7983 83.6069 35.0733 88.7419 36.2163C95.9019 37.8103 103.246 38.3743 110.371 38.5933C103.807 37.8023 97.1909 36.6233 90.6639 35.3823Z" fill="#717171"/>
<path d="M99.3439 29.8972C93.9199 28.6352 88.467 28.3561 83.058 28.0671C82.968 28.1131 82.925 28.1362 82.835 28.1822C86.32 29.5982 91.045 30.9691 96.277 32.2571C103.642 34.0701 111.213 34.9142 118.597 35.4452C112.242 33.2372 105.754 31.3872 99.3439 29.8972Z" fill="#717171"/>
<path d="M98.285 31.5081C92.164 30.1861 84.978 28.547 82.948 28.123C82.903 28.147 82.88 28.1591 82.835 28.1821C86.32 29.5981 91.045 30.969 96.277 32.257C103.642 34.07 111.213 34.9141 118.597 35.4451C111.822 34.3811 105.014 32.9621 98.285 31.5081Z" fill="#717171"/>
<path d="M89.803 25.3861C89.805 25.2721 101.362 25.9381 107.121 27.2801C113.926 28.8661 127.467 33.2161 127.467 33.2161C127.461 33.2871 111.94 31.5041 104.287 29.6331C98.617 28.2461 89.803 25.3861 89.803 25.3861Z" fill="#717171"/>
<path d="M89.803 25.386C89.807 25.359 100.869 27.718 106.34 28.929C113.323 30.476 127.467 33.216 127.467 33.216C127.467 33.223 111.94 31.504 104.287 29.633C98.617 28.246 89.803 25.386 89.803 25.386Z" fill="#717171"/>
<path d="M111.197 24.0831C105.273 23.2281 99.414 23.142 93.619 23.287C93.543 23.317 93.5 23.3321 93.422 23.3631C97.531 24.3851 102.985 25.316 109.008 26.261C117.313 27.566 125.698 28.1321 133.961 28.5301C126.395 26.5971 118.775 25.1771 111.197 24.0831Z" fill="#717171"/>
<path d="M111.023 25.4432C105.199 24.6262 99.339 23.8612 93.515 23.3262C93.478 23.3412 93.458 23.3492 93.421 23.3632C97.53 24.3852 102.984 25.3162 109.007 26.2612C117.312 27.5662 125.697 28.1322 133.96 28.5302C126.324 27.6252 118.645 26.5132 111.023 25.4432Z" fill="#717171"/>
<path d="M117.15 21.853C112.482 20.994 105.355 20.718 101.746 20.519C101.346 20.637 101.143 20.698 100.744 20.821C104.453 21.813 109.187 22.793 114.389 23.777C122.446 25.301 130.61 26.096 138.662 26.74C131.525 24.728 124.318 23.176 117.15 21.853Z" fill="#717171"/>
<path d="M116.42 23.0881C110.768 22.1311 104.391 21.1041 101.236 20.6731C101.039 20.7321 100.941 20.7621 100.744 20.8211C104.453 21.8131 109.187 22.7931 114.389 23.7771C122.446 25.3011 130.61 26.0961 138.662 26.7401C131.252 25.6351 123.824 24.3431 116.42 23.0881Z" fill="#717171"/>
<path d="M147.996 24.3351C140.053 22.3901 132.068 20.9911 124.117 19.9271C118.283 19.1471 112.512 19.0321 106.803 19.1501C106.66 19.1851 106.59 19.2031 106.448 19.2381C110.636 20.1331 116.143 20.9661 122.28 21.8661C130.838 23.1191 139.461 23.7721 147.996 24.3351Z" fill="#717171"/>
<path d="M147.996 24.3352C140.09 23.3182 132.16 22.1823 124.264 21.1313C118.377 20.3473 112.473 19.6522 106.602 19.1982C106.539 19.2142 106.508 19.2212 106.448 19.2372C110.636 20.1322 116.143 20.9652 122.28 21.8652C130.838 23.1192 139.461 23.7722 147.996 24.3352Z" fill="#717171"/>
<path d="M71.731 48.9642C66.131 48.6632 60.7 49.2112 55.348 49.9272C55.305 49.9782 55.284 50.0042 55.241 50.0542C59.157 50.9312 64.243 51.4882 69.71 51.8572C76.972 52.3462 84.224 51.7912 91.135 50.7522C84.641 49.8342 78.149 49.3102 71.731 48.9642Z" fill="#717171"/>
<path d="M71.245 50.6173C65.977 50.4223 60.6 50.1233 55.296 49.9883C55.275 50.0143 55.263 50.0273 55.241 50.0533C59.157 50.9303 64.243 51.4873 69.71 51.8563C76.972 52.3453 84.224 51.7903 91.135 50.7513C84.572 51.0273 77.851 50.8623 71.245 50.6173Z" fill="#717171"/>
<path d="M48.024 111.691C42.868 115.37 38.303 119.725 34.413 124.548C34.452 124.819 34.472 124.958 34.511 125.231C39.548 122.579 44.128 119.366 48.648 116.172C55.814 111.107 62.211 104.982 68.425 98.9241C61.104 102.565 54.497 107.076 48.024 111.691Z" fill="#717171"/>
<path d="M48.964 113.235C43.982 116.946 39.0709 120.773 34.4579 124.866C34.4789 125.011 34.489 125.085 34.511 125.23C39.548 122.578 44.1279 119.365 48.6479 116.171C55.8139 111.106 62.211 104.981 68.425 98.9231C61.97 103.729 55.403 108.44 48.964 113.235Z" fill="#717171"/>
<path d="M114.115 17.6201C114.115 17.6201 113.263 17.7721 111.697 18.1031C110.132 18.4331 107.851 18.9421 105.027 19.7051C102.207 20.4731 98.845 21.4921 95.148 22.8741C91.453 24.2591 87.412 25.9911 83.256 28.1761C62.758 38.9181 48.821 55.6891 40.115 75.8661C32.715 97.0501 31.525 119.936 39.349 143.784C42.378 153.032 46.622 162.137 51.902 170.863C52.256 171.447 52.592 171.992 52.906 172.496C54.656 175.306 56.306 177.066 56.654 177.91C56.931 178.58 56.056 178.98 55.498 178.427C54.816 177.754 53.896 175.692 52.191 172.95C51.861 172.417 51.502 171.836 51.127 171.21C45.773 162.33 41.818 153.232 38.514 143.871C30.719 119.879 31.998 96.8611 39.53 75.5961C48.362 55.3871 62.419 38.6091 83.051 27.9021C87.232 25.7321 91.282 23.9961 95.007 22.6411C98.728 21.2821 102.109 20.2841 104.952 19.5561C107.796 18.8241 110.097 18.3561 111.677 18.0551C113.258 17.7551 114.115 17.6201 114.115 17.6201Z" fill="#717171"/>
</svg>
