<svg width="108" height="134" viewBox="0 0 108 134" fill="none" xmlns="http://www.w3.org/2000/svg">
<path d="M54.5005 37.6147C49.6049 37.8416 39.5749 37.9138 38.6194 36.387C37.6639 34.8602 37.4936 33.614 37.5279 33.1818C35.7158 33.4373 32.2056 34.7667 32.6614 38.0396C29.3729 39.3543 25.8531 39.7561 24.971 42.2876C24.2653 44.3128 29.1152 46.9087 31.6283 47.9535C32.0418 49.7398 33.4197 53.4038 35.623 53.7691C37.1047 51.3344 38.7471 49.1504 39.3883 49.1357C40.0296 49.1209 52.695 48.5752 53.0438 48.8327C53.3229 49.0386 53.1882 82.2019 53.0859 98.7578C52.3249 103.348 49.9339 113.322 46.4581 116.5C48.0788 119.242 51.3014 120.895 52.7101 121.379C53.1358 123.53 54.9243 128.182 58.6736 129.583C62.2472 127.675 65.9985 122.909 66.1425 120.992C67.7592 120.579 72.12 118.266 72.3983 117.861C72.6767 117.457 67.4914 112.786 66.7552 103.864C66.019 94.9423 66.1227 49.7621 66.3453 49.3366C66.5678 48.9111 79.3102 48.9808 80.7608 49.5227C82.2114 50.0645 85.3089 51.9846 84.3857 55.1366C86.5315 54.158 90.5005 50.6815 88.9566 48.0066C91.4163 47.2088 96.0493 45.1884 96.4104 44.0517C96.7714 42.915 91.769 39.4568 88.7924 39.4257C88.1277 37.4608 88.5567 34.9507 83.9548 33.9945C83.2044 36.0031 82.8857 37.5371 81.7779 37.9497C80.8916 38.2799 71.4033 38.2068 66.7699 38.129L66.8109 26.4458C67.1157 24.949 68.428 21.9127 71.2384 21.7419C70.1348 19.9309 68.4792 17.2143 64.7706 17.1005C64.3701 14.5985 62.8364 9.0028 61.0094 8.44744C59.1823 7.89208 56.1609 16.4909 56.4196 17.1598C54.6214 17.3782 50.4495 20.2066 50.5617 20.7572C50.6739 21.3077 53.1301 23.2425 53.5017 24.9708C53.8734 26.6991 55.4448 29.13 54.5005 37.6147Z" fill="#6F2AC6"/>
<path d="M56.9881 33.3809C57.1783 36.1402 56.4581 41.7023 52.0553 41.8763C53.0869 43.3989 59.4892 49.2981 62.5614 52.0574C63.4802 50.2757 65.6235 46.6679 66.8468 46.4907C68.0701 46.3134 70.8776 46.0938 72.1284 46.0061C71.1694 44.6604 68.998 41.7918 67.9841 41.0831C66.7167 40.1973 65.2516 42.3977 62.3333 36.1372C60.166 34.974 57.8668 33.815 56.9881 33.3809Z" fill="#440F64"/>
<path d="M75.6937 41.9542L72.9055 41.987L78.3286 47.0425L80.3693 46.6215L75.6937 41.9542Z" fill="#440F64"/>
<path d="M80.3964 41.1405L77.6586 41.5697L82.1122 45.97L85.7773 46.4968L80.3964 41.1405Z" fill="#440F64"/>
<path d="M57.4157 49.8128L55.6469 52.1592L62.8097 58.0135L64.2748 55.8131L57.4157 49.8128Z" fill="#440F64"/>
<path d="M46.4036 39.4544L44.4417 39.6505L49.2071 44.6018L52.667 44.9936L46.4036 39.4544Z" fill="#440F64"/>
<path d="M39.6803 39.3707C39.0721 39.7256 37.9339 40.5006 38.2464 40.7616C38.637 41.0878 43.1468 45.5077 43.4841 45.6259C43.8213 45.744 46.7163 46.1272 46.2949 45.3485C45.9578 44.7255 41.7447 41.1037 39.6803 39.3707Z" fill="#440F64"/>
<path d="M33.8084 40.2795C32.2201 40.6697 29.1404 41.5344 29.5271 41.8718C30.0104 42.2936 33.8777 43.1437 34.5887 43.4559C35.2997 43.7681 36.2881 46.8912 36.1306 47.3409C35.973 47.7906 38.5455 45.852 38.7592 45.422C38.9302 45.078 35.5299 41.8504 33.8084 40.2795Z" fill="#440F64"/>
<path d="M57.6708 25.6685L56.7345 26.5395L61.9607 32.1571L63.85 30.5471L57.6708 25.6685Z" fill="#440F64"/>
<path d="M57.1747 21.1402L55.8479 21.685L61.465 26.3667L63.34 25.6984L57.1747 21.1402Z" fill="#440F64"/>
<path d="M59.5917 13.3411L57.9341 19.513C59.6408 20.8261 63.1783 23.4582 63.6752 23.4808C64.2964 23.5091 65.3849 21.303 65.1658 20.8476C64.9467 20.3922 63.1562 20.4591 62.3553 19.8629C61.5545 19.2668 59.6286 12.155 59.5917 13.3411Z" fill="#440F64"/>
<path d="M56.0728 56.3473L61.8053 60.8801L62.6001 89.0526L56.2014 84.9806L56.0728 56.3473Z" fill="#440F64"/>
<path d="M55.522 99.8886L54.4696 103.433L64.5101 110.8L63.6095 105.625L55.522 99.8886Z" fill="#440F64"/>
<path d="M56.018 87.1251L55.1568 90.4837L61.7714 96.4615L62.5148 92.1781L56.018 87.1251Z" fill="#440F64"/>
<path d="M55.5779 105.904L53.0079 108.916L63.11 117.188L68.1134 116.417L64.486 112.18L55.5779 105.904Z" fill="#440F64"/>
<path d="M53.4511 111.974C53.2335 112.655 52.6527 114.181 52.0701 114.835C51.3418 115.653 55.0602 116.387 56.1253 116.95C57.1904 117.512 57.8633 122.797 58.9481 123.303C60.0329 123.809 62.3271 121.584 62.513 120.513C62.6617 119.657 56.5337 114.464 53.4511 111.974Z" fill="#440F64"/>
<path d="M85.5971 38.5451C84.9524 38.8241 83.6826 39.5782 83.7611 40.363C83.8592 41.344 88.5015 44.4851 88.8023 44.5274C89.103 44.5697 91.2816 43.7552 91.5122 43.4574C91.7428 43.1595 88.3645 42.3545 87.971 42.2167C87.6563 42.1064 86.2573 39.723 85.5971 38.5451Z" fill="#440F64"/>
</svg>
