<svg width="73" height="122" viewBox="0 0 73 122" fill="none" xmlns="http://www.w3.org/2000/svg">
<g style="mix-blend-mode:luminosity">
<path d="M30.5005 29.6147C25.605 29.8416 15.5749 29.9138 14.6194 28.387C13.6639 26.8602 13.4936 25.614 13.5279 25.1818C11.7158 25.4373 8.20561 26.7667 8.66141 30.0396C5.37291 31.3543 1.85312 31.7561 0.971015 34.2876C0.265315 36.3128 5.11521 38.9087 7.62831 39.9535C8.04181 41.7398 9.41972 45.4038 11.623 45.7691C13.1047 43.3344 14.7471 41.1504 15.3884 41.1357C16.0297 41.1209 28.695 40.5752 29.0439 40.8327C29.3229 41.0386 29.1882 74.2019 29.0859 90.7578C28.3249 95.348 25.934 105.322 22.4581 108.5C24.0788 111.242 27.3014 112.895 28.7101 113.379C29.1358 115.53 30.9243 120.182 34.6736 121.583C38.2472 119.675 41.9985 114.909 42.1425 112.992C43.7592 112.579 48.12 110.266 48.3983 109.861C48.6767 109.457 43.4914 104.786 42.7552 95.864C42.019 86.9424 42.1227 41.7621 42.3453 41.3366C42.5678 40.9111 55.3102 40.9808 56.7608 41.5227C58.2114 42.0646 61.3089 43.9846 60.3857 47.1366C62.5315 46.158 66.5005 42.6815 64.9566 40.0066C67.4163 39.2088 72.0494 37.1884 72.4104 36.0517C72.7715 34.915 67.769 31.4568 64.7924 31.4257C64.1277 29.4608 64.5567 26.9507 59.9548 25.9945C59.2045 28.0031 58.8857 29.5371 57.7779 29.9498C56.8916 30.2799 47.4033 30.2068 42.7699 30.129L42.8109 18.4458C43.1157 16.949 44.428 13.9127 47.2384 13.7419C46.1348 11.9309 44.4792 9.21431 40.7706 9.10051C40.3701 6.59851 38.8365 1.00282 37.0094 0.447459C35.1823 -0.107901 32.1609 8.49091 32.4196 9.15981C30.6214 9.37821 26.4495 12.2066 26.5617 12.7572C26.6739 13.3077 29.1301 15.2425 29.5017 16.9708C29.8734 18.6991 31.4448 21.1301 30.5005 29.6147Z" fill="#7F7F7F" fill-opacity="0.4"/>
</g>
<g style="mix-blend-mode:overlay">
<path d="M30.5005 29.6147C25.605 29.8416 15.5749 29.9138 14.6194 28.387C13.6639 26.8602 13.4936 25.614 13.5279 25.1818C11.7158 25.4373 8.20561 26.7667 8.66141 30.0396C5.37291 31.3543 1.85312 31.7561 0.971015 34.2876C0.265315 36.3128 5.11521 38.9087 7.62831 39.9535C8.04181 41.7398 9.41972 45.4038 11.623 45.7691C13.1047 43.3344 14.7471 41.1504 15.3884 41.1357C16.0297 41.1209 28.695 40.5752 29.0439 40.8327C29.3229 41.0386 29.1882 74.2019 29.0859 90.7578C28.3249 95.348 25.934 105.322 22.4581 108.5C24.0788 111.242 27.3014 112.895 28.7101 113.379C29.1358 115.53 30.9243 120.182 34.6736 121.583C38.2472 119.675 41.9985 114.909 42.1425 112.992C43.7592 112.579 48.12 110.266 48.3983 109.861C48.6767 109.457 43.4914 104.786 42.7552 95.864C42.019 86.9424 42.1227 41.7621 42.3453 41.3366C42.5678 40.9111 55.3102 40.9808 56.7608 41.5227C58.2114 42.0646 61.3089 43.9846 60.3857 47.1366C62.5315 46.158 66.5005 42.6815 64.9566 40.0066C67.4163 39.2088 72.0494 37.1884 72.4104 36.0517C72.7715 34.915 67.769 31.4568 64.7924 31.4257C64.1277 29.4608 64.5567 26.9507 59.9548 25.9945C59.2045 28.0031 58.8857 29.5371 57.7779 29.9498C56.8916 30.2799 47.4033 30.2068 42.7699 30.129L42.8109 18.4458C43.1157 16.949 44.428 13.9127 47.2384 13.7419C46.1348 11.9309 44.4792 9.21431 40.7706 9.10051C40.3701 6.59851 38.8365 1.00282 37.0094 0.447459C35.1823 -0.107901 32.1609 8.49091 32.4196 9.15981C30.6214 9.37821 26.4495 12.2066 26.5617 12.7572C26.6739 13.3077 29.1301 15.2425 29.5017 16.9708C29.8734 18.6991 31.4448 21.1301 30.5005 29.6147Z" fill="#C2C2C2" fill-opacity="0.5"/>
</g>
<path d="M32.9881 25.3809C33.1783 28.1402 32.4581 33.7023 28.0553 33.8763C29.0869 35.3989 35.4892 41.2981 38.5614 44.0574C39.4802 42.2757 41.6235 38.6679 42.8468 38.4907C44.0701 38.3134 46.8776 38.0938 48.1284 38.0061C47.1694 36.6604 44.998 33.7918 43.9841 33.0831C42.7167 32.1973 41.2516 34.3977 38.3333 28.1372C36.166 26.974 33.8668 25.815 32.9881 25.3809Z" fill="#C0C0C0"/>
<path d="M51.6937 33.9542L48.9054 33.987L54.3286 39.0425L56.3693 38.6215L51.6937 33.9542Z" fill="#C0C0C0"/>
<path d="M56.3964 33.1405L53.6586 33.5697L58.1122 37.97L61.7773 38.4968L56.3964 33.1405Z" fill="#C0C0C0"/>
<path d="M33.4157 41.8128L31.6469 44.1592L38.8097 50.0135L40.2748 47.8131L33.4157 41.8128Z" fill="#C0C0C0"/>
<path d="M22.4036 31.4544L20.4416 31.6505L25.2071 36.6018L28.667 36.9936L22.4036 31.4544Z" fill="#C0C0C0"/>
<path d="M15.6803 31.3707C15.0721 31.7256 13.9339 32.5006 14.2464 32.7616C14.637 33.0878 19.1468 37.5077 19.4841 37.6259C19.8213 37.744 22.7163 38.1272 22.2949 37.3485C21.9578 36.7255 17.7447 33.1037 15.6803 31.3707Z" fill="#C0C0C0"/>
<path d="M9.80831 32.2795C8.22011 32.6697 5.14041 33.5344 5.52711 33.8718C6.01041 34.2936 9.87771 35.1437 10.5887 35.4559C11.2997 35.7681 12.2881 38.8912 12.1306 39.3409C11.973 39.7906 14.5455 37.852 14.7592 37.422C14.9302 37.078 11.5299 33.8504 9.80831 32.2795Z" fill="#C0C0C0"/>
<path d="M33.6707 17.6685L32.7345 18.5395L37.9607 24.1571L39.85 22.5471L33.6707 17.6685Z" fill="#C0C0C0"/>
<path d="M33.1747 13.1402L31.8478 13.685L37.465 18.3667L39.34 17.6984L33.1747 13.1402Z" fill="#C0C0C0"/>
<path d="M35.5916 5.34111L33.9341 11.513C35.6408 12.8261 39.1783 15.4582 39.6752 15.4808C40.2964 15.5091 41.3849 13.303 41.1658 12.8476C40.9467 12.3922 39.1562 12.4591 38.3553 11.8629C37.5545 11.2668 35.6286 4.15501 35.5916 5.34111Z" fill="#C0C0C0"/>
<path d="M32.0728 48.3473L37.8053 52.8801L38.6001 81.0526L32.2013 76.9806L32.0728 48.3473Z" fill="#C0C0C0"/>
<path d="M31.522 91.8886L30.4696 95.433L40.5101 102.8L39.6095 97.625L31.522 91.8886Z" fill="#C0C0C0"/>
<path d="M32.018 79.1251L31.1568 82.4837L37.7714 88.4615L38.5148 84.1781L32.018 79.1251Z" fill="#C0C0C0"/>
<path d="M31.5779 97.904L29.0079 100.916L39.11 109.188L44.1133 108.417L40.486 104.18L31.5779 97.904Z" fill="#C0C0C0"/>
<path d="M29.4511 103.974C29.2335 104.655 28.6526 106.181 28.0701 106.835C27.3418 107.653 31.0602 108.387 32.1253 108.95C33.1904 109.512 33.8633 114.797 34.9481 115.303C36.0328 115.809 38.3271 113.584 38.513 112.513C38.6617 111.657 32.5337 106.464 29.4511 103.974Z" fill="#C0C0C0"/>
</svg>
