<svg width="72" height="122" viewBox="0 0 72 122" fill="none" xmlns="http://www.w3.org/2000/svg">
<path d="M29.5989 29.193C24.7034 29.4199 14.6733 29.4921 13.7178 27.9653C12.7623 26.4385 12.592 25.1923 12.6263 24.7601C10.8142 25.0156 7.304 26.345 7.7598 29.6179C4.4713 30.9326 0.951504 31.3344 0.0694038 33.8659C-0.636296 35.8911 4.2136 38.487 6.7267 39.5318C7.1402 41.3181 8.5181 44.9821 10.7214 45.3474C12.2031 42.9127 13.8455 40.7287 14.4868 40.714C15.1281 40.6992 27.7934 40.1535 28.1423 40.411C28.4213 40.6169 28.2866 73.7802 28.1843 90.3361C27.4233 94.9263 25.0324 104.9 21.5565 108.078C23.1772 110.82 26.3998 112.473 27.8085 112.957C28.2342 115.108 30.0227 119.76 33.772 121.161C37.3456 119.253 41.0969 114.487 41.2409 112.57C42.8576 112.157 47.2184 109.844 47.4967 109.439C47.7751 109.035 42.5898 104.364 41.8536 95.4423C41.1174 86.5207 41.2211 41.3404 41.4437 40.9149C41.6662 40.4894 54.4086 40.5591 55.8592 41.101C57.3098 41.6429 60.4073 43.5629 59.4841 46.7149C61.6299 45.7363 65.5989 42.2598 64.055 39.5849C66.5147 38.7871 71.1478 36.7667 71.5088 35.63C71.8699 34.4933 66.8674 31.0351 63.8908 31.004C63.2261 29.0391 63.6551 26.529 59.0532 25.5728C58.3029 27.5814 57.9841 29.1154 56.8763 29.5281C55.99 29.8582 46.5017 29.7851 41.8683 29.7073L41.9093 18.0241C42.2141 16.5273 43.5264 13.491 46.3368 13.3202C45.2332 11.5092 43.5776 8.79262 39.869 8.67882C39.4685 6.17682 37.9349 0.581128 36.1078 0.0257675C34.2807 -0.529593 31.2593 8.06922 31.518 8.73812C29.7198 8.95652 25.5479 11.7849 25.6601 12.3355C25.7723 12.886 28.2285 14.8208 28.6001 16.5491C28.9718 18.2774 30.5432 20.7084 29.5989 29.193Z" fill="#7A7229"/>
<path d="M32.0866 24.9592C32.2768 27.7185 31.5566 33.2806 27.1538 33.4546C28.1854 34.9772 34.5877 40.8764 37.6599 43.6357C38.5787 41.854 40.722 38.2462 41.9453 38.069C43.1686 37.8917 45.9761 37.6721 47.2269 37.5844C46.2679 36.2387 44.0965 33.3701 43.0826 32.6614C41.8152 31.7756 40.3501 33.976 37.4318 27.7155C35.2645 26.5523 32.9653 25.3933 32.0866 24.9592Z" fill="#FFDF5D"/>
<path d="M50.7922 33.5325L48.0039 33.5653L53.4271 38.6208L55.4678 38.1998L50.7922 33.5325Z" fill="#FFDF5D"/>
<path d="M55.4946 32.7188L52.7568 33.1479L57.2104 37.5483L60.8755 38.0751L55.4946 32.7188Z" fill="#FFDF5D"/>
<path d="M32.5139 41.3911L30.7451 43.7375L37.9079 49.5918L39.373 47.3914L32.5139 41.3911Z" fill="#FFDF5D"/>
<path d="M21.502 31.0327L19.54 31.2288L24.3055 36.1801L27.7654 36.5719L21.502 31.0327Z" fill="#FFDF5D"/>
<path d="M14.7787 30.949C14.1705 31.3039 13.0323 32.0789 13.3448 32.3399C13.7354 32.6661 18.2452 37.086 18.5825 37.2042C18.9197 37.3223 21.8147 37.7055 21.3933 36.9268C21.0562 36.3038 16.8431 32.682 14.7787 30.949Z" fill="#FFDF5D"/>
<path d="M8.90676 31.8579C7.31856 32.2481 4.23886 33.1128 4.62556 33.4502C5.10886 33.872 8.97616 34.7221 9.68716 35.0343C10.3982 35.3465 11.3866 38.4696 11.2291 38.9193C11.0715 39.369 13.644 37.4304 13.8577 37.0004C14.0287 36.6564 10.6284 33.4288 8.90676 31.8579Z" fill="#FFDF5D"/>
<path d="M32.7692 17.2468L31.833 18.1178L37.0592 23.7354L38.9485 22.1254L32.7692 17.2468Z" fill="#FFDF5D"/>
<path d="M32.2732 12.7185L30.9463 13.2633L36.5635 17.945L38.4385 17.2767L32.2732 12.7185Z" fill="#FFDF5D"/>
<path d="M34.6902 4.91929L33.0327 11.0912C34.7394 12.4043 38.2769 15.0364 38.7738 15.059C39.395 15.0873 40.4835 12.8812 40.2644 12.4258C40.0453 11.9704 38.2548 12.0373 37.4539 11.4411C36.6531 10.845 34.7272 3.73319 34.6902 4.91929Z" fill="#FFDF5D"/>
<path d="M31.1714 47.9255L36.9039 52.4583L37.6987 80.6308L31.2999 76.5588L31.1714 47.9255Z" fill="#FFDF5D"/>
<path d="M30.6203 91.4668L29.5679 95.0112L39.6084 102.378L38.7078 97.2032L30.6203 91.4668Z" fill="#FFDF5D"/>
<path d="M31.1166 78.7034L30.2554 82.062L36.87 88.0398L37.6134 83.7564L31.1166 78.7034Z" fill="#FFDF5D"/>
<path d="M30.6764 97.4824L28.1064 100.494L38.2085 108.766L43.2118 107.995L39.5845 103.758L30.6764 97.4824Z" fill="#FFDF5D"/>
<path d="M28.5495 103.552C28.3319 104.233 27.751 105.759 27.1685 106.413C26.4402 107.231 30.1586 107.965 31.2237 108.528C32.2888 109.09 32.9617 114.375 34.0465 114.881C35.1312 115.387 37.4255 113.162 37.6114 112.091C37.7601 111.235 31.6321 106.042 28.5495 103.552Z" fill="#FFDF5D"/>
</svg>
